<svg width="91" height="91" viewBox="0 0 91 91" fill="none" xmlns="http://www.w3.org/2000/svg">
<path fill-rule="evenodd" clip-rule="evenodd" d="M91 45.5C91 70.629 70.629 91 45.5 91C20.371 91 0 70.629 0 45.5C0 20.371 20.371 0 45.5 0C70.629 0 91 20.371 91 45.5ZM69.895 31.7702C69.5988 30.655 69.019 29.6374 68.2131 28.8184C67.4073 27.9994 66.4035 27.4074 65.3012 27.1012C61.2453 26 44.949 26 44.949 26C44.949 26 28.6817 26 24.5967 27.1012C23.4924 27.4065 22.4862 27.9979 21.6779 28.8169C20.8696 29.6358 20.2871 30.6539 19.9883 31.7702C18.9126 35.896 18.9126 44.5 18.9126 44.5C18.9126 44.5 18.9126 53.104 19.9883 57.2151C20.2849 58.3341 20.8664 59.3552 21.6748 60.1769C22.4833 60.9986 23.4907 61.5922 24.5967 61.8988C28.6381 63 44.949 63 44.949 63C44.949 63 61.2017 63 65.3012 61.8988C66.4053 61.5913 67.4103 60.9971 68.2162 60.1754C69.0222 59.3536 69.601 58.333 69.895 57.2151C70.9853 53.104 70.9853 44.5 70.9853 44.5C70.9853 44.5 70.9853 35.896 69.895 31.7702ZM39 54V51.6735V37.3254V35L41 36.1864L53.0408 43.3289L55 44.4911L53.0418 45.6549L41 52.8114L39 54ZM51.0826 44.4927L41 50.4848V38.5118L51.0826 44.4927Z" fill="url(#paint0_linear_231_808)"/>
<defs>
<linearGradient id="paint0_linear_231_808" x1="45.5" y1="0" x2="45.5" y2="91" gradientUnits="userSpaceOnUse">
<stop stop-color="#E2CCA1"/>
<stop offset="0.39" stop-color="#8D774C"/>
<stop offset="0.68" stop-color="#CDB78C"/>
<stop offset="1" stop-color="#877146"/>
</linearGradient>
</defs>
</svg>
