<svg width="48" height="54" viewBox="0 0 48 54" fill="none" xmlns="http://www.w3.org/2000/svg">
<g clip-path="url(#clip0_164_139)">
<path d="M0.728734 54.0264C0.537494 54.0198 0.355951 53.9397 0.220646 53.8026C0.0853411 53.6655 0.00629569 53.4815 -0.000192563 53.2877V0.791259C-0.020708 0.680748 -0.0168694 0.56715 0.0109288 0.458287C0.0387271 0.349425 0.0900728 0.247935 0.160908 0.161383C0.231744 0.0748303 0.320403 0.00535666 0.420831 -0.0424573C0.521259 -0.0902713 0.630804 -0.115234 0.741762 -0.115234C0.85272 -0.115234 0.962265 -0.0902713 1.06269 -0.0424573C1.16312 0.00535666 1.2521 0.0748303 1.32293 0.161383C1.39377 0.247935 1.4448 0.349425 1.47259 0.458287C1.50039 0.56715 1.50423 0.680748 1.48372 0.791259V53.3141C1.47051 53.5077 1.38525 53.689 1.24508 53.8213C1.10492 53.9535 0.920239 54.0268 0.728734 54.0264Z" fill="url(#paint0_linear_164_139)"/>
<path d="M18.6899 31.7615C17.4749 31.7575 16.2631 31.6338 15.0717 31.3921L4.26899 29.1235C4.1038 29.0868 3.95657 28.9932 3.85209 28.8585C3.74762 28.7237 3.69248 28.5561 3.69639 28.3848V2.84905C3.69018 2.73818 3.71079 2.62747 3.75613 2.52638C3.80147 2.42529 3.87013 2.33692 3.95663 2.26876C4.04281 2.19732 4.1435 2.14606 4.25151 2.1187C4.35952 2.09133 4.47213 2.08839 4.58134 2.11033L15.3579 4.37897C17.5659 4.82737 19.8399 4.82737 22.0479 4.37897L29.2581 2.11033C31.6948 1.58302 34.2142 1.58302 36.6509 2.11033L47.4275 4.35257C47.5927 4.38925 47.74 4.48316 47.8444 4.61791C47.9489 4.75267 48.004 4.91996 48.0001 5.09129V30.6273C48.0005 30.7374 47.9774 30.846 47.9324 30.9461C47.8875 31.0463 47.8219 31.1355 47.7399 31.2076C47.6569 31.2845 47.5563 31.3391 47.4472 31.3667C47.3382 31.3943 47.2241 31.394 47.1152 31.3657L36.3646 29.0971C34.1391 28.6486 31.848 28.6486 29.6225 29.0971L22.4124 31.3657C21.1883 31.6268 19.9408 31.7594 18.6899 31.7615ZM5.15425 27.7781L15.3579 29.915C17.5632 30.3901 19.8426 30.3901 22.0479 29.915L29.2581 27.6725C31.6964 27.1605 34.2126 27.1605 36.6509 27.6725L46.5423 29.7302V5.72438L36.3646 3.58777C34.1418 3.11302 31.8454 3.11302 29.6225 3.58777L22.4124 5.85641C19.9909 6.36107 17.4932 6.36107 15.0717 5.85641L5.15425 3.79869V27.7781Z" fill="url(#paint1_linear_164_139)"/>
</g>
<defs>
<linearGradient id="paint0_linear_164_139" x1="0.741762" y1="-0.115234" x2="0.741762" y2="54.0264" gradientUnits="userSpaceOnUse">
<stop stop-color="#E2CCA1"/>
<stop offset="0.39" stop-color="#8D774C"/>
<stop offset="0.68" stop-color="#CDB78C"/>
<stop offset="1" stop-color="#877146"/>
</linearGradient>
<linearGradient id="paint1_linear_164_139" x1="25.8478" y1="1.71484" x2="25.8478" y2="31.7615" gradientUnits="userSpaceOnUse">
<stop stop-color="#E2CCA1"/>
<stop offset="0.39" stop-color="#8D774C"/>
<stop offset="0.68" stop-color="#CDB78C"/>
<stop offset="1" stop-color="#877146"/>
</linearGradient>
<clipPath id="clip0_164_139">
<rect width="48" height="54" fill="white"/>
</clipPath>
</defs>
</svg>
