<svg width="52" height="67" viewBox="0 0 52 67" fill="none" xmlns="http://www.w3.org/2000/svg">
<g clip-path="url(#clip0_165_143)">
<path fill-rule="evenodd" clip-rule="evenodd" d="M29.819 9.9874C29.9326 10.0322 30.0543 10.0535 30.1766 10.0499C30.3048 10.0528 30.4309 10.0188 30.5398 9.95226C30.7165 9.89075 30.8691 9.77593 30.9758 9.62412C31.0825 9.47231 31.1379 9.2912 31.1341 9.1066V0.87806C31.1255 0.633587 31.0209 0.402012 30.8423 0.232101C30.6636 0.06219 30.425 -0.0328602 30.1766 -0.0327148C29.9341 -0.0246078 29.7037 0.073959 29.5321 0.243019C29.3605 0.412079 29.2604 0.639111 29.2522 0.87806V6.89497L22.649 0.390117C22.5137 0.267077 22.3462 0.183594 22.1655 0.149123C21.9847 0.114651 21.7977 0.130563 21.6255 0.194979C21.454 0.264152 21.3066 0.380956 21.2011 0.531061C21.0956 0.681165 21.0366 0.858152 21.0312 1.04064V9.20427C21.0398 9.44874 21.1445 9.68032 21.3231 9.85023C21.5017 10.0201 21.7404 10.115 21.9887 10.1148C22.2313 10.1067 22.4616 10.0084 22.6333 9.83931C22.8049 9.67025 22.9049 9.44322 22.9132 9.20427V3.28482L29.5163 9.78968C29.6024 9.87537 29.7054 9.94263 29.819 9.9874ZM26.0165 15.7417H25.2571C18.4953 15.9362 12.0763 18.7175 7.36115 23.496C2.64605 28.2745 0.0057026 34.6743 0 41.3383V42.2489C0.305526 48.8386 3.17533 55.0593 8.01366 59.6197C12.852 64.1801 19.2872 66.7299 25.9835 66.7397C32.8782 66.7226 39.4854 64.0168 44.3607 59.2141C49.236 54.4115 51.9826 47.9026 52 41.1106C51.9134 34.3695 49.1408 27.9319 44.2801 23.1861C39.4194 18.4404 32.86 15.7668 26.0165 15.7417ZM26.0165 65.1461V59.2266C26.0165 59.0024 25.9261 58.7873 25.7651 58.6287C25.6041 58.4701 25.3858 58.381 25.1581 58.381C24.9304 58.381 24.7121 58.4701 24.5511 58.6287C24.3901 58.7873 24.2997 59.0024 24.2997 59.2266V65.081C18.5218 64.6871 13.0789 62.2651 8.95945 58.2547C4.83996 54.2443 2.31706 48.9115 1.84889 43.2247H7.92381C8.14571 43.2163 8.35566 43.1234 8.50957 42.9657C8.66349 42.808 8.74938 42.5978 8.74921 42.3791C8.74938 42.1603 8.66349 41.95 8.50957 41.7923C8.35566 41.6346 8.14571 41.5418 7.92381 41.5334H1.98096V41.3708C1.98279 35.3536 4.3006 29.5608 8.46701 25.1607C12.6334 20.7606 18.3385 18.0803 24.4318 17.6605V24.4907C24.4316 24.7095 24.5175 24.9197 24.6714 25.0773C24.8253 25.235 25.0353 25.328 25.2571 25.3364C25.4848 25.3364 25.7032 25.2472 25.8641 25.0887C26.0251 24.9301 26.1156 24.715 26.1156 24.4907V17.5956C32.4966 17.63 38.6049 20.1488 43.1077 24.6029C47.6106 29.057 50.1425 35.0847 50.1511 41.3708V41.5334H43.0857C42.9773 41.5376 42.8708 41.5629 42.7723 41.6077C42.6737 41.6524 42.5851 41.7159 42.5115 41.7945C42.4379 41.873 42.3808 41.9649 42.3434 42.0652C42.3059 42.1656 42.2889 42.2723 42.2933 42.3791C42.2889 42.4859 42.3059 42.5924 42.3434 42.6927C42.3808 42.7931 42.4379 42.8852 42.5115 42.9637C42.5851 43.0422 42.6737 43.1057 42.7723 43.1505C42.8708 43.1953 42.9773 43.2206 43.0857 43.2247H50.0521C49.5727 49.1674 46.8477 54.7165 42.4156 58.7754C37.9835 62.8344 32.1669 65.1078 26.1156 65.1461H26.0165ZM24.7428 54.0047C24.8956 54.1031 25.0745 54.1548 25.257 54.1531C25.4386 54.1507 25.6157 54.0974 25.7677 53.9995C25.9197 53.9016 26.0403 53.7632 26.1154 53.6003L30.6716 42.9322C30.7206 42.8191 30.7459 42.6975 30.7459 42.5745C30.7459 42.4515 30.7206 42.3299 30.6716 42.2168L26.1154 31.5813C26.0475 31.4133 25.9287 31.2699 25.775 31.171C25.6214 31.072 25.4405 31.0223 25.257 31.0284C25.0726 31.0173 24.8894 31.065 24.7348 31.1646C24.5801 31.2642 24.4622 31.4104 24.3986 31.5813L20.1072 41.5986H16.4087C16.181 41.5986 15.9627 41.6876 15.8017 41.8462C15.6407 42.0048 15.5503 42.2198 15.5503 42.4441C15.5503 42.6684 15.6407 42.8836 15.8017 43.0422C15.9627 43.2008 16.181 43.2898 16.4087 43.2898H19.9951L24.3986 53.6003C24.4703 53.7656 24.5901 53.9063 24.7428 54.0047ZM21.9988 43.2898L25.257 50.8682L28.7897 42.5745L25.257 34.3132L22.1125 41.5986H24.4316C24.6535 41.607 24.8634 41.6998 25.0173 41.8575C25.1712 42.0152 25.2571 42.2253 25.257 42.4441C25.257 42.6684 25.1665 42.8836 25.0055 43.0422C24.8445 43.2008 24.6262 43.2898 24.3985 43.2898H21.9988Z" fill="url(#paint0_linear_165_143)"/>
</g>
<defs>
<linearGradient id="paint0_linear_165_143" x1="26" y1="-0.0327148" x2="26" y2="66.7397" gradientUnits="userSpaceOnUse">
<stop stop-color="#E2CCA1"/>
<stop offset="0.39" stop-color="#8D774C"/>
<stop offset="0.68" stop-color="#CDB78C"/>
<stop offset="1" stop-color="#877146"/>
</linearGradient>
<clipPath id="clip0_165_143">
<rect width="52" height="67" fill="white"/>
</clipPath>
</defs>
</svg>
