<svg width="62" height="47" viewBox="0 0 62 47" fill="none" xmlns="http://www.w3.org/2000/svg">
<path d="M61.1618 21.8104H53.9054V7.80528C53.9094 7.69645 53.8913 7.58791 53.8521 7.48652C53.8128 7.38513 53.7534 7.29306 53.6774 7.21604C53.6014 7.13903 53.5105 7.07877 53.4104 7.039C53.3104 6.99923 53.2034 6.98079 53.096 6.98491H42.6883L38.93 0.421876C38.8743 0.32022 38.7978 0.231742 38.7058 0.162306C38.6137 0.0928692 38.5082 0.044 38.3961 0.0190637C38.284 -0.00587257 38.168 -0.00634125 38.0557 0.0176331C37.9434 0.0416074 37.8374 0.0894585 37.7448 0.158103L27.7708 6.98491H27.4239H1.78082C1.67343 6.98079 1.56626 6.99923 1.46621 7.039C1.36616 7.07877 1.27541 7.13903 1.19941 7.21604C1.12342 7.29306 1.06379 7.38513 1.02455 7.48652C0.985305 7.58791 0.967204 7.69645 0.971261 7.80528V45.2499C0.971261 45.4674 1.05661 45.6761 1.20841 45.83C1.36022 45.9838 1.56614 46.0702 1.78082 46.0702H53.096C53.3107 46.0702 53.5164 45.9838 53.6682 45.83C53.82 45.6761 53.9054 45.4674 53.9054 45.2499V30.6002H61.1618C61.3842 30.6002 61.5975 30.5107 61.7547 30.3513C61.9119 30.192 62.0001 29.9758 62.0001 29.7505V22.4843C61.9598 22.2906 61.8539 22.1172 61.7009 21.9941C61.5478 21.8711 61.3571 21.8061 61.1618 21.8104ZM52.2864 8.62566V13.7237H46.5044L43.6134 8.62566H52.2864ZM37.8315 2.09187L41.2717 7.95174C41.293 8.09063 41.3653 8.21631 41.4741 8.30341L44.5386 13.6358H21.0058L37.8315 2.09187ZM52.2864 44.4295H2.61915V8.53777H25.5158L18.0859 13.6358H10.5115C10.2968 13.6358 10.0909 13.7223 9.9391 13.8762C9.78729 14.03 9.70212 14.2386 9.70212 14.4562C9.70212 14.6738 9.78729 14.8825 9.9391 15.0363C10.0909 15.1902 10.2968 15.2766 10.5115 15.2766H52.2864V21.8104H31.7894C31.577 21.8177 31.3752 21.9065 31.2249 22.0588C31.0746 22.2111 30.987 22.4155 30.9798 22.6308V29.897C30.9797 30.1174 31.064 30.3292 31.215 30.4877C31.366 30.6462 31.5721 30.739 31.7894 30.7466H52.2864V44.4295ZM60.3522 29.0767H32.6277V23.4805H60.3522V29.0767Z" fill="url(#paint0_linear_166_269)"/>
<defs>
<linearGradient id="paint0_linear_166_269" x1="31.4854" y1="0" x2="31.4854" y2="46.0702" gradientUnits="userSpaceOnUse">
<stop stop-color="#E2CCA1"/>
<stop offset="0.39" stop-color="#8D774C"/>
<stop offset="0.68" stop-color="#CDB78C"/>
<stop offset="1" stop-color="#877146"/>
</linearGradient>
</defs>
</svg>
