<svg width="22" height="23" viewBox="0 0 22 23" fill="none" xmlns="http://www.w3.org/2000/svg">
<path d="M3.15152 16.9797L3.61109 17.1766L3.72214 16.9175L3.55791 16.6884L3.15152 16.9797ZM1 21.9999L0.540428 21.8029L0.0758218 22.887L1.178 22.4671L1 21.9999ZM6.44638 19.9251L6.6903 19.4886L6.48653 19.3747L6.26838 19.4579L6.44638 19.9251ZM20.9685 11.1013C20.9685 16.404 16.6698 20.7026 11.3672 20.7026V21.7026C17.2221 21.7026 21.9685 16.9563 21.9685 11.1013H20.9685ZM11.3672 1.5C16.6698 1.5 20.9685 5.79865 20.9685 11.1013H21.9685C21.9685 5.24637 17.2221 0.5 11.3672 0.5V1.5ZM1.76585 11.1013C1.76585 5.79865 6.06451 1.5 11.3672 1.5V0.5C5.51222 0.5 0.765854 5.24637 0.765854 11.1013H1.76585ZM3.55791 16.6884C2.42982 15.1146 1.76585 13.1862 1.76585 11.1013H0.765854C0.765854 13.402 1.49933 15.5329 2.74514 17.271L3.55791 16.6884ZM1.45957 22.1969L3.61109 17.1766L2.69195 16.7827L0.540428 21.8029L1.45957 22.1969ZM6.26838 19.4579L0.822002 21.5327L1.178 22.4671L6.62438 20.3923L6.26838 19.4579ZM11.3672 20.7026C9.66821 20.7026 8.07373 20.2618 6.6903 19.4886L6.20245 20.3616C7.73113 21.2159 9.49306 21.7026 11.3672 21.7026V20.7026Z" fill="white"/>
<path fill-rule="evenodd" clip-rule="evenodd" d="M16.4371 13.4202C16.1656 13.2896 14.8432 12.6504 14.5927 12.5611C14.3421 12.4717 14.1681 12.4305 13.9871 12.6916C13.8062 12.9528 13.2911 13.5508 13.131 13.7295C12.9709 13.9082 12.8178 13.9288 12.5394 13.7913C11.7428 13.4836 11.0077 13.0392 10.3679 12.4786C9.77657 11.949 9.27177 11.3323 8.87143 10.6503C8.71134 10.3892 8.87141 10.2448 8.98974 10.1143C9.10806 9.98366 9.25423 9.79809 9.39343 9.64689L9.49089 9.52316C9.5547 9.42099 9.61279 9.31545 9.66489 9.207C9.70329 9.13495 9.72334 9.05475 9.72334 8.97332C9.72334 8.89189 9.70329 8.81169 9.66489 8.73964C9.59529 8.60905 9.05239 7.30316 8.82967 6.77393C8.60694 6.2447 8.37726 6.33406 8.21718 6.33406C8.05709 6.33406 7.8831 6.33406 7.70213 6.33406C7.56964 6.34012 7.43972 6.37244 7.32014 6.42912C7.20057 6.4858 7.09378 6.56568 7.00612 6.66398C6.70252 6.94826 6.4622 7.29185 6.30043 7.67287C6.13866 8.0539 6.059 8.46401 6.06653 8.87711C6.07143 9.18207 6.11822 9.48496 6.2057 9.77748C6.41854 10.4363 6.74335 11.0545 7.16619 11.6057C7.3054 11.7844 9.03846 14.5405 11.7807 15.6058C14.523 16.6711 14.53 16.2931 15.0242 16.2931C15.4008 16.2225 15.7581 16.074 16.0724 15.8572C16.3867 15.6404 16.6509 15.3603 16.8477 15.0354C17.0207 14.6396 17.0762 14.2034 17.0078 13.7776C16.8895 13.6333 16.7085 13.5645 16.4371 13.4202Z" fill="white"/>
</svg>
