<svg width="41" height="41" viewBox="0 0 41 41" fill="none" xmlns="http://www.w3.org/2000/svg">
<path d="M5.89329 29.9157L6.81243 30.3096L7.03454 29.7913L6.70605 29.3331L5.89329 29.9157ZM2 39L1.08085 38.6061L0.151643 40.7742L2.356 39.9345L2 39ZM11.8556 35.2455L12.3435 34.3725L11.9359 34.1448L11.4996 34.311L11.8556 35.2455ZM38.038 19.2785C38.038 28.8211 30.3022 36.557 20.7595 36.557V38.557C31.4067 38.557 40.038 29.9257 40.038 19.2785H38.038ZM20.7595 2C30.3022 2 38.038 9.73584 38.038 19.2785H40.038C40.038 8.63127 31.4067 0 20.7595 0V2ZM3.48104 19.2785C3.48104 9.73584 11.2169 2 20.7595 2V0C10.1123 0 1.48104 8.63127 1.48104 19.2785H3.48104ZM6.70605 29.3331C4.67591 26.5008 3.48104 23.0307 3.48104 19.2785H1.48104C1.48104 23.4623 2.81494 27.3376 5.08052 30.4982L6.70605 29.3331ZM2.91915 39.3939L6.81243 30.3096L4.97414 29.5217L1.08085 38.6061L2.91915 39.3939ZM11.4996 34.311L1.644 38.0655L2.356 39.9345L12.2116 36.18L11.4996 34.311ZM20.7595 36.557C17.7021 36.557 14.8329 35.7637 12.3435 34.3725L11.3678 36.1184C14.1477 37.6719 17.3518 38.557 20.7595 38.557V36.557Z" fill="white"/>
<path fill-rule="evenodd" clip-rule="evenodd" d="M29.9338 23.4746C29.4426 23.2383 27.0497 22.0816 26.5963 21.9199C26.1429 21.7583 25.828 21.6836 25.5006 22.1562C25.1731 22.6289 24.2411 23.7109 23.9514 24.0342C23.6617 24.3576 23.3847 24.3949 22.8809 24.1462C21.4395 23.5894 20.1092 22.7852 18.9515 21.7707C17.8815 20.8125 16.9681 19.6965 16.2436 18.4625C15.954 17.9899 16.2436 17.7287 16.4577 17.4924C16.6718 17.2561 16.9363 16.9203 17.1882 16.6467L17.3646 16.4228C17.48 16.2379 17.5851 16.047 17.6794 15.8507C17.7489 15.7203 17.7852 15.5752 17.7852 15.4279C17.7852 15.2805 17.7489 15.1354 17.6794 15.005C17.5535 14.7687 16.5711 12.4057 16.1681 11.448C15.765 10.4904 15.3494 10.6521 15.0598 10.6521C14.7701 10.6521 14.4552 10.6521 14.1278 10.6521C13.888 10.6631 13.6529 10.7215 13.4366 10.8241C13.2202 10.9267 13.027 11.0712 12.8683 11.2491C12.319 11.7635 11.8841 12.3852 11.5914 13.0747C11.2986 13.7642 11.1545 14.5063 11.1681 15.2538C11.177 15.8056 11.2617 16.3537 11.4199 16.883C11.8051 18.0751 12.3928 19.1938 13.158 20.1912C13.4099 20.5146 16.5459 25.5018 21.5081 27.4295C26.4703 29.3572 26.4829 28.6732 27.3771 28.6732C28.0587 28.5455 28.7052 28.2766 29.2739 27.8843C29.8427 27.492 30.3208 26.9852 30.6769 26.3972C30.9898 25.681 31.0903 24.8917 30.9665 24.1213C30.7524 23.8601 30.4249 23.7357 29.9338 23.4746Z" fill="white"/>
</svg>
