<svg width="58" height="55" viewBox="0 0 58 55" fill="none" xmlns="http://www.w3.org/2000/svg">
<path fill-rule="evenodd" clip-rule="evenodd" d="M14.1591 20.1436H2.36483L25.9029 48.8345L14.1591 20.1436ZM15.7906 20.1436H41.5044L28.6476 51.5911L15.7906 20.1436ZM41.0246 18.5831H16.0787L28.5516 2.11847L41.0246 18.5831ZM43.1361 20.1436L31.34 48.949L54.972 20.1436H43.1361ZM55.0725 18.5831H43.0129L30.0778 1.55314H42.8408L55.0725 18.5831ZM56.8458 18.5839L43.8764 0.540106C43.8045 0.440211 43.7104 0.358498 43.6016 0.30147C43.4928 0.244442 43.3723 0.21368 43.2496 0.211564H29.1177C29.1011 0.196088 29.0838 0.181311 29.0658 0.167282C28.9742 0.0956627 28.868 0.0452466 28.7547 0.0195548C28.6414 -0.00613698 28.5239 -0.0065554 28.4105 0.0185521C28.2971 0.0436597 28.1906 0.0937966 28.0986 0.164942C28.0796 0.17967 28.0612 0.195229 28.0436 0.211564H14.7141C14.5979 0.212603 14.4835 0.240252 14.3796 0.292446C14.2757 0.34464 14.185 0.41996 14.1145 0.5127L0.160194 18.8843C0.0562903 19.0223 0 19.1906 0 19.3636C0 19.5366 0.0562903 19.7046 0.160194 19.8425L27.9259 53.7768L27.9326 53.7932L27.9399 53.8106C27.9469 53.8317 27.9548 53.8525 27.9636 53.873C28.0043 53.9675 28.0636 54.0526 28.1379 54.1236C28.2122 54.1947 28.2999 54.2502 28.3959 54.2864C28.4851 54.3108 28.5792 54.3108 28.6685 54.2864L28.6692 54.2864C28.7904 54.2943 28.9115 54.2708 29.0211 54.2181C29.1309 54.1654 29.2254 54.0849 29.2953 53.9849L57.2584 20.1163C57.352 19.9921 57.4069 19.8436 57.417 19.689C57.4627 19.5867 57.4863 19.4758 57.4863 19.3636C57.4863 19.2469 57.4608 19.1313 57.4114 19.0257C57.362 18.92 57.29 18.8268 57.2005 18.7523C57.1111 18.6778 57.0064 18.6241 56.894 18.5948C56.878 18.5907 56.8619 18.587 56.8458 18.5839ZM14.0899 18.5831H2.28784L15.0412 1.55314H27.0252L14.0899 18.5831Z" fill="url(#paint0_linear_166_197)"/>
<defs>
<linearGradient id="paint0_linear_166_197" x1="28.7432" y1="0" x2="28.7432" y2="54.3047" gradientUnits="userSpaceOnUse">
<stop stop-color="#E2CCA1"/>
<stop offset="0.39" stop-color="#8D774C"/>
<stop offset="0.68" stop-color="#CDB78C"/>
<stop offset="1" stop-color="#877146"/>
</linearGradient>
</defs>
</svg>
