<svg width="41" height="41" viewBox="0 0 41 41" fill="none" xmlns="http://www.w3.org/2000/svg">
<path fill-rule="evenodd" clip-rule="evenodd" d="M20.7595 0C10.1123 0 1.48101 8.63128 1.48101 19.2785C1.48101 23.2584 2.68804 26.959 4.75586 30.031L0.151611 40.7742L11.7824 36.3435C14.4644 37.7571 17.5199 38.557 20.7595 38.557C31.4067 38.557 40.038 29.9257 40.038 19.2785C40.038 8.63128 31.4067 0 20.7595 0Z" fill="url(#paint0_linear_234_2)"/>
<path fill-rule="evenodd" clip-rule="evenodd" d="M29.9338 23.4744C29.4426 23.2381 27.0497 22.0814 26.5963 21.9198C26.1429 21.7581 25.828 21.6835 25.5006 22.1561C25.1731 22.6287 24.2411 23.7107 23.9514 24.0341C23.6617 24.3574 23.3847 24.3947 22.8809 24.146C21.4395 23.5892 20.1092 22.785 18.9515 21.7705C17.8815 20.8123 16.9681 19.6963 16.2436 18.4623C15.954 17.9897 16.2436 17.7285 16.4577 17.4922C16.6718 17.2559 16.9363 16.9201 17.1882 16.6465L17.3646 16.4226C17.48 16.2378 17.5851 16.0468 17.6794 15.8505C17.7489 15.7201 17.7852 15.575 17.7852 15.4277C17.7852 15.2803 17.7489 15.1352 17.6794 15.0048C17.5535 14.7685 16.5711 12.4055 16.1681 11.4479C15.765 10.4902 15.3494 10.6519 15.0598 10.6519C14.7701 10.6519 14.4552 10.6519 14.1278 10.6519C13.888 10.6629 13.6529 10.7214 13.4366 10.8239C13.2202 10.9265 13.027 11.071 12.8683 11.2489C12.319 11.7633 11.8841 12.385 11.5914 13.0745C11.2986 13.764 11.1545 14.5061 11.1681 15.2536C11.177 15.8054 11.2617 16.3535 11.4199 16.8828C11.8051 18.0749 12.3928 19.1936 13.158 20.191C13.4099 20.5144 16.5459 25.5016 21.5081 27.4293C26.4703 29.357 26.4829 28.673 27.3771 28.673C28.0587 28.5453 28.7052 28.2764 29.2739 27.8841C29.8427 27.4918 30.3208 26.985 30.6769 26.3971C30.9898 25.6808 31.0903 24.8915 30.9665 24.1211C30.7524 23.8599 30.4249 23.7356 29.9338 23.4744Z" fill="white"/>
<defs>
<linearGradient id="paint0_linear_234_2" x1="30.5" y1="4" x2="-7" y2="49" gradientUnits="userSpaceOnUse">
<stop stop-color="#E2CCA1"/>
<stop offset="0.39" stop-color="#8D774C"/>
<stop offset="0.68" stop-color="#CDB78C"/>
<stop offset="1" stop-color="#877146"/>
</linearGradient>
</defs>
</svg>
