<svg width="61" height="54" viewBox="0 0 61 54" fill="none" xmlns="http://www.w3.org/2000/svg">
<path fill-rule="evenodd" clip-rule="evenodd" d="M52.4684 3.12982C56.4667 5.9798 58.5004 10.3032 57.4766 13.506H57.4697C59.0473 15.2734 60.08 17.4594 60.443 19.8005C60.8061 22.1416 60.4842 24.5378 59.5161 26.7C58.5479 28.8623 56.9749 30.6982 54.9867 31.9866C52.9986 33.2749 50.6801 33.9605 48.3111 33.9608C47.5572 33.9599 46.805 33.8928 46.0629 33.7602L26.7771 53.046C26.6808 53.1448 26.5657 53.2232 26.4386 53.2767C26.3114 53.3301 26.1748 53.3575 26.0369 53.3573H19.5484C19.2707 53.3554 19.005 53.2439 18.8094 53.0469C18.6137 52.8499 18.5038 52.5835 18.5038 52.3058V45.8173C18.5038 45.5401 18.6132 45.2741 18.8082 45.0771L37.1256 26.7598C36.1664 24.6303 35.8283 22.2731 36.1502 19.9599C36.449 17.8489 37.2919 15.852 38.5962 14.1655C39.9005 12.479 41.6212 11.161 43.5892 10.341C45.5572 9.52099 47.7048 9.22726 49.8207 9.48867C51.9366 9.75008 53.9481 10.5576 55.6574 11.8319C55.7127 9.61144 54.0179 6.80297 51.251 4.81767C46.8307 1.65641 39.7542 0.694876 32.3041 6.5401L36.3785 10.6145C36.4759 10.7115 36.5533 10.8269 36.6061 10.9539C36.6588 11.0809 36.686 11.2171 36.686 11.3546C36.686 11.4922 36.6588 11.6284 36.6061 11.7554C36.5533 11.8824 36.4759 11.9977 36.3785 12.0948L12.1052 36.3819C11.9083 36.5771 11.6423 36.6866 11.3651 36.6866C11.0878 36.6866 10.8218 36.5771 10.6249 36.3819L0.310997 26.068C0.212488 25.9708 0.134283 25.8551 0.0808947 25.7274C0.0275062 25.5997 0 25.4628 0 25.3244C0 25.186 0.0275062 25.049 0.0808947 24.9214C0.134283 24.7937 0.212488 24.6779 0.310997 24.5808L24.5843 0.307493C24.6813 0.210028 24.7967 0.132695 24.9237 0.0799237C25.0507 0.0271528 25.1869 0 25.3244 0C25.462 0 25.5982 0.0271528 25.7252 0.0799237C25.8522 0.132695 25.9675 0.210028 26.0646 0.307493L30.81 5.05978C39.2216 -1.71238 47.3703 -0.529504 52.4684 3.12982ZM11.3305 34.1406L34.158 11.3546L30.6854 7.91667C30.3396 8.23487 29.9937 8.56691 29.6478 8.91278C29.4467 9.08834 29.1863 9.18082 28.9195 9.17146C28.6527 9.16211 28.3995 9.05162 28.2112 8.86241C28.0228 8.6732 27.9135 8.41943 27.9054 8.1526C27.8973 7.88576 27.991 7.62583 28.1675 7.42553C28.5134 7.07966 28.8592 6.75455 29.2051 6.43635L25.3106 2.54183L2.49691 25.314L11.3305 34.1406ZM52.217 31.0951C53.453 30.5834 54.5754 29.8316 55.519 28.8834L55.5398 28.8696C56.8744 27.535 57.8122 25.856 58.2485 24.0197C58.6848 22.1834 58.6025 20.262 58.0107 18.4698C57.419 16.6775 56.3411 15.0849 54.8972 13.8693C53.4533 12.6538 51.7002 11.8632 49.8333 11.5857C47.9664 11.3082 46.0591 11.5546 44.3241 12.2976C42.5891 13.0406 41.0945 14.2508 40.007 15.7935C38.9196 17.3361 38.2819 19.1504 38.1652 21.0342C38.0485 22.918 38.4573 24.7972 39.3461 26.4623C39.4518 26.6614 39.4907 26.8893 39.4571 27.1123C39.4235 27.3352 39.3191 27.5414 39.1593 27.7005L34.1926 32.6672L35.4308 33.9055C35.5283 34.0025 35.6056 34.1179 35.6584 34.2449C35.7111 34.3719 35.7383 34.5081 35.7383 34.6456C35.7383 34.7832 35.7111 34.9194 35.6584 35.0464C35.6056 35.1734 35.5283 35.2887 35.4308 35.3858C35.3348 35.4849 35.2197 35.5635 35.0925 35.617C34.9653 35.6705 34.8286 35.6977 34.6906 35.6971C34.5528 35.697 34.4163 35.6694 34.2892 35.6159C34.1621 35.5625 34.047 35.4843 33.9505 35.3858L32.7123 34.1476L30.2427 36.6171L32.2488 38.6231C32.3462 38.7202 32.4236 38.8355 32.4763 38.9626C32.5291 39.0896 32.5563 39.2258 32.5563 39.3633C32.5563 39.5009 32.5291 39.637 32.4763 39.7641C32.4236 39.8911 32.3462 40.0064 32.2488 40.1035C32.1522 40.2018 32.037 40.2799 31.9099 40.3331C31.7829 40.3864 31.6464 40.4139 31.5086 40.4139C31.3708 40.4139 31.2344 40.3864 31.1073 40.3331C30.9802 40.2799 30.865 40.2018 30.7685 40.1035L28.7624 38.0974L26.0992 40.7606L27.3374 41.9989C27.533 42.1969 27.6427 42.4641 27.6427 42.7425C27.6427 43.0208 27.533 43.288 27.3374 43.4861C27.1393 43.6817 26.8722 43.7914 26.5938 43.7914C26.3154 43.7914 26.0482 43.6817 25.8502 43.4861L24.6119 42.2479L20.6206 46.2392V51.2405H25.6219L44.9907 31.8717C45.1171 31.7454 45.2738 31.6537 45.4457 31.6053C45.6177 31.5568 45.7992 31.5533 45.973 31.595C46.7416 31.775 47.5285 31.8656 48.318 31.8648C49.6558 31.8685 50.981 31.6069 52.217 31.0951ZM48.874 14.9286C49.2811 14.9184 49.6766 15.0655 49.9782 15.3393L54.6543 20.0154C54.9506 20.3117 55.1171 20.7136 55.1171 21.1326C55.1171 21.5516 54.9506 21.9535 54.6543 22.2498C54.3581 22.5461 53.9562 22.7125 53.5372 22.7125C53.1181 22.7125 52.7163 22.5461 52.42 22.2498L47.7438 17.5805C47.4691 17.2798 47.3209 16.8848 47.3298 16.4776C47.3387 16.0704 47.5041 15.6823 47.7916 15.3938C48.0792 15.1054 48.4668 14.9388 48.874 14.9286Z" fill="url(#paint0_linear_166_191)"/>
<defs>
<linearGradient id="paint0_linear_166_191" x1="30.2941" y1="0" x2="30.2941" y2="53.3573" gradientUnits="userSpaceOnUse">
<stop stop-color="#E2CCA1"/>
<stop offset="0.39" stop-color="#8D774C"/>
<stop offset="0.68" stop-color="#CDB78C"/>
<stop offset="1" stop-color="#877146"/>
</linearGradient>
</defs>
</svg>
