<svg width="53" height="53" viewBox="0 0 53 53" fill="none" xmlns="http://www.w3.org/2000/svg">
<g clip-path="url(#clip0_163_133)">
<path d="M26.4746 53.0001C21.2334 53.0001 16.1099 51.4458 11.752 48.5339C7.39408 45.622 3.99757 41.4834 1.99185 36.6411C-0.0138705 31.7989 -0.53871 26.4706 0.483798 21.3301C1.50631 16.1896 4.0302 11.468 7.73629 7.76191C11.4424 4.05582 16.1642 1.5317 21.3047 0.509189C26.4452 -0.51332 31.7735 0.0115201 36.6157 2.01724C41.458 4.02296 45.5967 7.4197 48.5086 11.7776C51.4204 16.1355 52.9747 21.2587 52.9747 26.5C52.9679 33.5261 50.1738 40.2626 45.2056 45.2309C40.2373 50.1991 33.5008 52.9934 26.4746 53.0001ZM26.4746 1.4468C21.5207 1.45182 16.6794 2.92564 12.5628 5.68156C8.44616 8.43749 5.23893 12.3518 3.34661 16.9301C1.45428 21.5085 0.961807 26.5452 1.93135 31.4034C2.9009 36.2615 5.28898 40.7233 8.79374 44.2245C12.2985 47.7257 16.7626 50.1091 21.6217 51.0738C26.4809 52.0384 31.5169 51.5407 36.0933 49.6438C40.6697 47.7468 44.5809 44.5358 47.3327 40.4164C50.0844 36.297 51.5532 31.4539 51.5532 26.5C51.5465 19.8531 48.9013 13.4808 44.1988 8.78319C39.4964 4.08554 33.1215 1.4468 26.4746 1.4468Z" fill="url(#paint0_linear_163_133)"/>
<path d="M18.1996 35.0792C18.0599 35.0699 17.9257 35.0209 17.8129 34.938C17.7 34.855 17.6131 34.7417 17.5625 34.6111C17.5119 34.4805 17.4995 34.3382 17.5269 34.2008C17.5544 34.0635 17.6204 33.9366 17.7173 33.8355L24.1139 27.7438C24.2508 27.6134 24.4325 27.5405 24.6216 27.5405C24.8106 27.5405 24.9924 27.6134 25.1293 27.7438C25.2001 27.808 25.2567 27.8863 25.2954 27.9737C25.3342 28.0611 25.3542 28.1557 25.3542 28.2513C25.3542 28.347 25.3342 28.4415 25.2954 28.529C25.2567 28.6164 25.2001 28.6946 25.1293 28.7589L18.7327 34.8509C18.5921 34.9944 18.4005 35.0764 18.1996 35.0792Z" fill="url(#paint1_linear_163_133)"/>
<path d="M26.4744 24.6725C26.2859 24.6725 26.1051 24.5976 25.9718 24.4643C25.8385 24.331 25.7637 24.1502 25.7637 23.9617V7.4122C25.7954 7.24354 25.885 7.09106 26.0171 6.9815C26.1492 6.87194 26.3155 6.81201 26.4871 6.81201C26.6587 6.81201 26.8249 6.87194 26.957 6.9815C27.0891 7.09106 27.1788 7.24354 27.2105 7.4122V23.9617C27.2106 24.0573 27.1914 24.1521 27.1541 24.24C27.1168 24.3279 27.0621 24.4073 26.9934 24.4736C26.9247 24.54 26.8434 24.5919 26.7542 24.6261C26.665 24.6603 26.5698 24.676 26.4744 24.6725Z" fill="url(#paint2_linear_163_133)"/>
<path d="M26.4747 29.3933C25.9024 29.3933 25.3429 29.2235 24.8671 28.9055C24.3912 28.5876 24.0204 28.1357 23.8013 27.607C23.5823 27.0782 23.525 26.4966 23.6367 25.9353C23.7483 25.374 24.0239 24.8583 24.4286 24.4536C24.8332 24.0489 25.3489 23.7732 25.9102 23.6616C26.4715 23.5499 27.0533 23.6071 27.5821 23.8261C28.1108 24.0451 28.5628 24.4162 28.8808 24.892C29.1987 25.3679 29.3684 25.9272 29.3684 26.4995C29.3684 26.8795 29.2936 27.2559 29.1482 27.607C29.0027 27.958 28.7896 28.2771 28.5209 28.5458C28.2522 28.8145 27.9332 29.0275 27.5821 29.1729C27.231 29.3184 26.8548 29.3933 26.4747 29.3933ZM26.4747 25.0528C26.1886 25.0528 25.9088 25.1377 25.6709 25.2967C25.433 25.4557 25.2476 25.6818 25.138 25.9461C25.0285 26.2105 24.9999 26.5012 25.0557 26.7818C25.1115 27.0625 25.2493 27.3203 25.4517 27.5227C25.654 27.725 25.9118 27.8628 26.1925 27.9187C26.4731 27.9745 26.7641 27.9457 27.0285 27.8362C27.2928 27.7267 27.5188 27.5415 27.6778 27.3036C27.8367 27.0657 27.9216 26.7857 27.9216 26.4995C27.9216 26.1158 27.7691 25.748 27.4978 25.4767C27.2265 25.2054 26.8585 25.0528 26.4747 25.0528Z" fill="url(#paint3_linear_163_133)"/>
</g>
<defs>
<linearGradient id="paint0_linear_163_133" x1="26.4746" y1="0" x2="26.4746" y2="53.0001" gradientUnits="userSpaceOnUse">
<stop stop-color="#E2CCA1"/>
<stop offset="0.39" stop-color="#8D774C"/>
<stop offset="0.68" stop-color="#CDB78C"/>
<stop offset="1" stop-color="#877146"/>
</linearGradient>
<linearGradient id="paint1_linear_163_133" x1="21.4335" y1="27.5405" x2="21.4335" y2="35.0792" gradientUnits="userSpaceOnUse">
<stop stop-color="#E2CCA1"/>
<stop offset="0.39" stop-color="#8D774C"/>
<stop offset="0.68" stop-color="#CDB78C"/>
<stop offset="1" stop-color="#877146"/>
</linearGradient>
<linearGradient id="paint2_linear_163_133" x1="26.4871" y1="6.81201" x2="26.4871" y2="24.673" gradientUnits="userSpaceOnUse">
<stop stop-color="#E2CCA1"/>
<stop offset="0.39" stop-color="#8D774C"/>
<stop offset="0.68" stop-color="#CDB78C"/>
<stop offset="1" stop-color="#877146"/>
</linearGradient>
<linearGradient id="paint3_linear_163_133" x1="26.4747" y1="23.606" x2="26.4747" y2="29.3933" gradientUnits="userSpaceOnUse">
<stop stop-color="#E2CCA1"/>
<stop offset="0.39" stop-color="#8D774C"/>
<stop offset="0.68" stop-color="#CDB78C"/>
<stop offset="1" stop-color="#877146"/>
</linearGradient>
<clipPath id="clip0_163_133">
<rect width="53" height="53" fill="white"/>
</clipPath>
</defs>
</svg>
