<svg width="91" height="91" viewBox="0 0 91 91" fill="none" xmlns="http://www.w3.org/2000/svg">
<path fill-rule="evenodd" clip-rule="evenodd" d="M45.5 91C70.629 91 91 70.629 91 45.5C91 20.371 70.629 0 45.5 0C20.371 0 0 20.371 0 45.5C0 70.629 20.371 91 45.5 91ZM48.4929 32.5743C41.1308 35.6587 19.9337 44.4277 19.9337 44.4277V44.4456C14.9189 46.4899 17.8531 48.2831 17.8531 48.2831C17.8531 48.2831 22.1388 49.7715 25.8198 50.8833C26.7183 51.2509 27.6818 51.4295 28.6512 51.4079C29.6206 51.3863 30.5755 51.165 31.457 50.7577C31.457 50.7577 40.0283 45.0732 48.7419 39.012C54.8591 34.8158 53.3831 38.2769 51.9249 39.7473C48.7418 42.9752 43.4603 48.032 39.0502 52.1027C38.7128 52.3041 38.4313 52.5882 38.2317 52.9286C38.0322 53.269 37.9211 53.6546 37.9087 54.0498C37.8963 54.445 37.9829 54.8369 38.1607 55.1893C38.3385 55.5417 38.6016 55.8432 38.9257 56.0658C41.6429 58.3417 48.0671 62.543 50.4757 64.1181C50.9518 64.4295 51.271 64.6382 51.3737 64.7092C51.9961 65.1396 55.4282 67.417 57.5088 66.9328C59.5893 66.4487 59.8383 63.5974 59.8383 63.5974C59.8383 63.5974 61.421 53.4656 62.897 44.1945C63.1835 42.2722 63.4699 40.3992 63.7349 38.6663C64.3747 34.4828 64.8895 31.1166 64.9776 29.8486C65.351 25.5807 60.9408 27.3739 60.9408 27.3739C60.9408 27.3739 51.3025 31.337 48.4929 32.5743Z" fill="url(#paint0_linear_231_666)"/>
<defs>
<linearGradient id="paint0_linear_231_666" x1="45.5" y1="0" x2="45.5" y2="91" gradientUnits="userSpaceOnUse">
<stop stop-color="#E2CCA1"/>
<stop offset="0.39" stop-color="#8D774C"/>
<stop offset="0.68" stop-color="#CDB78C"/>
<stop offset="1" stop-color="#877146"/>
</linearGradient>
</defs>
</svg>
