<svg width="48" height="48" viewBox="0 0 48 48" fill="none" xmlns="http://www.w3.org/2000/svg">
<path fill-rule="evenodd" clip-rule="evenodd" d="M47.8404 15.1164C47.9233 15.2302 47.976 15.3634 47.9936 15.5032C48.0148 15.6672 47.983 15.8336 47.9029 15.9781C47.8228 16.1227 47.6988 16.2376 47.5488 16.3062C46.0179 17.175 45.0495 21.2024 44.2329 24.5987C44.2109 24.6903 44.189 24.7814 44.1672 24.8719C42.9807 29.8686 41.7349 34.5977 38.7686 34.5977C36.2474 34.5977 35.8617 29.9877 35.3574 23.6526C35.3477 23.535 35.338 23.4165 35.3282 23.2972C34.8577 17.5623 34.2328 9.94507 31.5013 10.1199C27.8111 10.3271 25.5019 22.0832 23.9595 29.9354L23.9375 30.0473C23.4368 33.3632 22.6427 36.6279 21.5645 39.8026C20.6194 42.0476 19.081 43.9913 17.1152 45.424H45.68C45.9003 45.424 46.1116 45.5116 46.2673 45.6678C46.4231 45.8239 46.5105 46.0358 46.5105 46.2567C46.5105 46.4775 46.4231 46.6894 46.2673 46.8455C46.1116 47.0017 45.9003 47.0895 45.68 47.0895H0.830631C0.610357 47.0895 0.399081 47.0017 0.243324 46.8455C0.0875663 46.6894 0 46.4775 0 46.2567V1.31611C0.0177572 1.19122 0.0645401 1.07237 0.136688 0.969019C0.208837 0.865672 0.304364 0.780704 0.415316 0.721227C0.800925 0.513031 1.36449 0.751006 1.69077 1.31611V45.3942C4.62112 43.9297 6.94247 41.4757 8.24621 38.4642C9.63703 34.5999 10.6794 30.6183 11.3607 26.5673C14.0007 14.254 16.9964 0.304864 23.6705 0.00744145C25.7468 -0.111528 27.3783 1.19725 28.5351 3.84431C28.5826 3.95315 28.6073 4.07061 28.6074 4.1894C28.6074 4.3082 28.583 4.42578 28.5357 4.53468C28.4883 4.64358 28.419 4.74142 28.3322 4.82223C28.2453 4.90303 28.1428 4.96493 28.0309 5.00412C27.83 5.07287 27.6104 5.06195 27.4173 4.97344C27.2243 4.88494 27.0722 4.72566 26.9926 4.52833C25.7171 1.5541 24.2638 1.5541 23.7298 1.5541C18.4118 1.82072 15.3008 16.1622 13.0193 26.6799L12.9921 26.8053C12.3205 30.939 11.2679 35.0014 9.84791 38.9402C8.63078 41.5194 6.79667 43.757 4.50873 45.4537H13.1701C16.1998 44.2868 18.6856 42.0275 20.1406 39.1186C21.1359 36.0618 21.88 32.9283 22.3653 29.7497C24.2934 19.905 26.4884 8.72201 31.5013 8.45433C35.8769 8.27647 36.5102 15.9578 37.1311 23.4885L37.1373 23.5633C37.3746 26.597 37.8787 32.9322 38.8575 32.9322C40.6262 32.9322 41.7211 28.3206 42.608 24.5853L42.6247 24.5151C42.746 24.0575 42.8638 23.6024 42.9802 23.1529C43.9457 19.4234 44.8122 16.0762 46.7181 14.9084C46.8361 14.8317 46.9715 14.7864 47.1117 14.7766C47.2519 14.7668 47.3923 14.7928 47.5198 14.8523C47.6472 14.9117 47.7576 15.0025 47.8404 15.1164ZM39.1246 23.8311C39.2296 23.8674 39.341 23.8813 39.4517 23.8721C39.5625 23.8629 39.67 23.8308 39.7677 23.7777C39.8653 23.7245 39.9509 23.6516 40.019 23.5635C40.087 23.4754 40.1358 23.374 40.1627 23.2659C40.4593 22.225 40.7561 21.1244 41.023 20.0537C42.2392 15.3842 43.6036 10.1495 45.9766 9.07881C46.1475 9.00478 46.2909 8.8789 46.3866 8.71884C46.4824 8.55877 46.5257 8.37262 46.5105 8.18658C46.4934 8.05486 46.4463 7.92888 46.3727 7.81843C46.2991 7.70799 46.2011 7.61616 46.0863 7.54995C45.9715 7.48374 45.8428 7.44489 45.7106 7.43667C45.5784 7.42846 45.4462 7.45108 45.3241 7.50257C42.3579 8.84097 40.8451 14.0756 39.3916 19.6077C39.2573 20.0925 39.1291 20.5834 39.0014 21.0722L39.0014 21.0723C38.8471 21.6628 38.6936 22.2502 38.5313 22.8197C38.5002 22.9252 38.4911 23.036 38.5045 23.1452C38.5179 23.2544 38.5535 23.3597 38.6092 23.4546C38.6648 23.5494 38.7392 23.6318 38.8279 23.6965C38.9165 23.7613 39.0175 23.807 39.1246 23.8311ZM31.175 18.5072V16.9904C31.1524 16.7667 31.0437 16.5608 30.872 16.4164C30.7002 16.2719 30.479 16.2004 30.2555 16.217C30.1475 16.2244 30.042 16.2535 29.9455 16.3029C29.8491 16.3522 29.7638 16.4208 29.6944 16.5042C29.6251 16.5876 29.5734 16.6841 29.5424 16.7881C29.5113 16.8921 29.5017 17.0014 29.5139 17.1093V17.1096C29.5139 17.6151 29.5139 18.1207 29.6622 18.6261L29.6771 18.7955C30.2338 25.113 30.688 30.2684 32.6284 31.7424C32.748 31.8397 32.893 31.9006 33.0461 31.9174C33.1992 31.9342 33.3538 31.9064 33.4915 31.8374C33.6292 31.7683 33.7442 31.6609 33.8226 31.528C33.901 31.3951 33.9395 31.2425 33.9336 31.0882C33.9419 30.9515 33.9165 30.8148 33.8595 30.6903C33.8026 30.5657 33.7161 30.4573 33.6073 30.3744C32.1539 29.5416 31.5903 23.2065 31.175 18.5072Z" fill="url(#paint0_linear_165_155)"/>
<defs>
<linearGradient id="paint0_linear_165_155" x1="24" y1="0" x2="24" y2="47.0895" gradientUnits="userSpaceOnUse">
<stop stop-color="#E2CCA1"/>
<stop offset="0.39" stop-color="#8D774C"/>
<stop offset="0.68" stop-color="#CDB78C"/>
<stop offset="1" stop-color="#877146"/>
</linearGradient>
</defs>
</svg>
