<svg width="81" height="41" viewBox="0 0 81 41" fill="none" xmlns="http://www.w3.org/2000/svg">
<path fill-rule="evenodd" clip-rule="evenodd" d="M8.19636 32.065C8.28871 32.121 8.39473 32.1505 8.50274 32.1501C8.59632 32.1504 8.68863 32.1284 8.77202 32.086C8.85541 32.0435 8.92749 31.9818 8.9823 31.906L14.302 24.4146C16.3555 25.9345 17.6916 28.3888 17.6916 31.152C17.6916 35.7215 13.9873 39.4402 9.43369 39.4402C4.88007 39.4402 1.17506 35.7215 1.17506 31.152C1.17506 26.5507 4.88368 22.8052 9.43369 22.8052V22.806C10.8325 22.806 12.1513 23.1594 13.3071 23.7826L8.02391 31.222C7.96099 31.3098 7.92354 31.4133 7.91569 31.521C7.90784 31.6287 7.9299 31.7366 7.97942 31.8325C8.02895 31.9285 8.10402 32.009 8.19636 32.065ZM13.9919 22.8184C12.6397 22.0628 11.0854 21.6323 9.43369 21.6323C4.23223 21.6323 0 25.9028 0 31.1541C0 36.3708 4.23368 40.6153 9.43369 40.6153C14.6344 40.6153 18.8703 36.3708 18.8703 31.152C18.8703 27.9923 17.337 25.1885 14.9826 23.4562L21.7716 13.8957L56.5127 28.189C56.209 29.1225 56.0446 30.1193 56.0446 31.1541C56.0446 36.3708 60.2783 40.6153 65.4783 40.6153C70.679 40.6153 74.9149 36.3708 74.9149 31.152C74.9149 25.9007 70.6798 21.6323 65.4783 21.6323C61.7141 21.6323 58.4574 23.8689 56.9451 27.0952L45.4026 22.3463L56.3992 22.3943C56.5515 22.3889 56.6957 22.3247 56.8015 22.2151C56.9074 22.1055 56.9665 21.9591 56.9665 21.8068C56.9665 21.6544 56.9074 21.508 56.8015 21.3984C56.6957 21.2888 56.5515 21.2246 56.3992 21.2192L42.6632 21.1593C42.6257 21.1606 42.5887 21.1655 42.5526 21.1737L33.6579 17.5142H66.6389C73.5723 17.5142 79.2056 23.2104 79.2056 30.2116C79.2056 30.2888 79.2208 30.3652 79.2504 30.4365C79.2799 30.5078 79.3232 30.5726 79.3778 30.6271C79.4324 30.6816 79.4973 30.7248 79.5686 30.7543C79.6399 30.7838 79.7163 30.7989 79.7935 30.7988C79.8706 30.7989 79.947 30.7838 80.0183 30.7543C80.0896 30.7248 80.1544 30.6816 80.2089 30.627C80.2635 30.5725 80.3067 30.5077 80.3362 30.4365C80.3656 30.3652 80.3808 30.2888 80.3807 30.2116C80.3807 22.5626 74.2179 16.3392 66.6411 16.3392H32.9457C32.8668 16.3364 32.7882 16.3495 32.7145 16.3778C32.6408 16.4061 32.5735 16.4489 32.5168 16.5038C32.46 16.5586 32.4148 16.6243 32.384 16.697C32.3531 16.7696 32.3372 16.8477 32.3372 16.9267C32.3372 16.9417 32.3378 16.9567 32.3389 16.9716L22.4705 12.9115L30.6916 1.33422L38.1566 4.99301C38.2258 5.02696 38.301 5.04695 38.378 5.05182C38.455 5.0567 38.5321 5.04636 38.6051 5.02142C38.6781 4.99647 38.7454 4.9574 38.8033 4.90643C38.8611 4.85545 38.9084 4.79358 38.9423 4.72434C38.9763 4.65511 38.9963 4.57986 39.0012 4.5029C39.006 4.42594 38.9957 4.34878 38.9707 4.27581C38.9458 4.20284 38.9067 4.1355 38.8557 4.07764C38.8048 4.01977 38.7429 3.97252 38.6737 3.93856L30.7603 0.0587779C30.6348 -0.00165373 30.4922 -0.0160295 30.3572 0.0181704C30.2223 0.0523703 30.1036 0.132962 30.0221 0.245831L13.9919 22.8184ZM57.2197 31.152C57.2197 30.2762 57.354 29.4314 57.6029 28.6376L65.8928 32.0483C65.9642 32.0771 66.0405 32.092 66.1175 32.0923C66.2534 32.0922 66.3852 32.045 66.4902 31.9587C66.5953 31.8724 66.6672 31.7523 66.6937 31.6189C66.7201 31.4856 66.6996 31.3472 66.6355 31.2272C66.5714 31.1073 66.4677 31.0134 66.3421 30.9613L58.0332 27.5428C59.3684 24.7428 62.2057 22.8052 65.4783 22.8052V22.806C70.0312 22.806 73.7362 26.5507 73.7362 31.152C73.7362 35.7215 70.0319 39.4402 65.4783 39.4402C60.9247 39.4402 57.2197 35.7215 57.2197 31.152ZM13.7908 15.8769C13.8665 15.9108 13.9485 15.9283 14.0314 15.9282L14.0617 15.9297C14.1492 15.9248 14.2346 15.9005 14.3115 15.8585C14.3885 15.8165 14.4551 15.7579 14.5066 15.687L20.6181 7.28029C20.669 7.20966 20.7036 7.12863 20.7195 7.04301C20.7353 6.9574 20.732 6.86933 20.7098 6.78515C20.6875 6.70097 20.6469 6.62276 20.5909 6.55615C20.5348 6.48953 20.4647 6.43617 20.3855 6.3999C17.8469 5.25301 14.8497 6.05396 13.2673 8.29285C11.6112 10.5411 11.7499 13.6705 13.5923 15.7318C13.6475 15.7936 13.7151 15.8431 13.7908 15.8769ZM15.8614 7.55978C16.5147 7.22494 17.2388 7.05159 17.9729 7.05424C18.3896 7.054 18.8044 7.11012 19.2061 7.22107L14.0169 14.3566C13.507 13.5436 13.2534 12.596 13.2892 11.6369C13.325 10.6778 13.6485 9.75171 14.2177 8.97897C14.6443 8.38133 15.2079 7.89467 15.8614 7.55978ZM50.4625 31.7391C50.3858 31.7392 50.3097 31.7242 50.2386 31.6951L24.2241 21.0004C24.1475 20.9749 24.077 20.9338 24.017 20.8799C23.9569 20.8259 23.9086 20.7601 23.8751 20.6867C23.8416 20.6132 23.8236 20.5336 23.8222 20.4529C23.8208 20.3722 23.836 20.292 23.8669 20.2175C23.8979 20.1429 23.9438 20.0755 24.0019 20.0194C24.0601 19.9634 24.1291 19.9199 24.2048 19.8917C24.2804 19.8636 24.3611 19.8513 24.4417 19.8556C24.5223 19.86 24.6012 19.8809 24.6733 19.9171L50.6872 30.606C50.8131 30.6577 50.9171 30.7516 50.9814 30.8715C51.0458 30.9914 51.0664 31.13 51.0399 31.2635C51.0134 31.397 50.9413 31.5172 50.836 31.6034C50.7307 31.6896 50.5987 31.7366 50.4625 31.7363V31.7391ZM43.3154 35.1639C43.3859 35.1933 43.4615 35.2083 43.5379 35.208V35.2116C43.6741 35.2118 43.8062 35.1647 43.9115 35.0783C44.0168 34.9918 44.0887 34.8714 44.115 34.7377C44.1413 34.6041 44.1203 34.4654 44.0556 34.3455C43.9909 34.2256 43.8865 34.132 43.7603 34.0806L26.6501 27.0851C26.5778 27.049 26.4989 27.0282 26.4183 27.024C26.3376 27.0197 26.257 27.0322 26.1814 27.0605C26.1057 27.0889 26.0368 27.1326 25.9788 27.1888C25.9208 27.245 25.8751 27.3126 25.8444 27.3873C25.8137 27.462 25.7987 27.5422 25.8005 27.623C25.8022 27.7037 25.8206 27.7832 25.8545 27.8565C25.8883 27.9299 25.937 27.9954 25.9973 28.0491C26.0577 28.1027 26.1284 28.1434 26.2052 28.1685L43.3154 35.1639Z" fill="url(#paint0_linear_166_186)"/>
<defs>
<linearGradient id="paint0_linear_166_186" x1="40.1903" y1="0" x2="40.1903" y2="40.6153" gradientUnits="userSpaceOnUse">
<stop stop-color="#E2CCA1"/>
<stop offset="0.39" stop-color="#8D774C"/>
<stop offset="0.68" stop-color="#CDB78C"/>
<stop offset="1" stop-color="#877146"/>
</linearGradient>
</defs>
</svg>
