<svg width="23" height="21" viewBox="0 0 23 21" fill="none" xmlns="http://www.w3.org/2000/svg">
<path d="M8.68584 13.2496L8.68582 13.2497L8.68989 13.2532C10.0701 14.461 11.6549 15.4192 13.3716 16.0841C13.6853 16.2366 14.0095 16.3426 14.3402 16.306C14.7016 16.266 14.97 16.069 15.1845 15.8299C15.5178 15.4584 16.6183 14.1843 17.0181 13.6081C17.1501 13.4178 17.2215 13.4103 17.2424 13.4081C17.243 13.408 17.2436 13.408 17.2442 13.4079C17.316 13.3997 17.4317 13.4219 17.7091 13.5207C17.9418 13.6035 18.7362 13.9699 19.5803 14.3687C20.2982 14.708 21.0203 15.0553 21.3856 15.231C21.4373 15.2559 21.4818 15.2773 21.5182 15.2948C21.6593 15.3696 21.775 15.4281 21.8771 15.4798C22.0033 15.5436 22.1087 15.5969 22.2161 15.6577C22.3279 15.721 22.4076 15.7747 22.4681 15.8269C22.5595 16.5643 22.4536 17.3134 22.1598 17.9994C21.786 18.6068 21.2875 19.1314 20.6956 19.5391C20.1061 19.9451 19.4372 20.2261 18.7314 20.3642C18.5012 20.369 18.2991 20.4063 18.1333 20.4369C18.0891 20.4451 18.0474 20.4527 18.0085 20.4592C17.8059 20.4928 17.5714 20.5184 17.1963 20.4828C16.4175 20.4088 15.0309 20.0713 12.1622 18.9584C7.05096 16.9755 3.65494 12.1057 2.85595 10.9599C2.7827 10.8549 2.73128 10.7812 2.70237 10.7438C1.85199 9.63659 1.19872 8.39529 0.770228 7.07289C0.600993 6.506 0.510463 5.91916 0.50096 5.32835L0.50094 5.32727C0.48644 4.53281 0.639837 3.74389 0.951559 3.01067C1.26329 2.27742 1.7266 1.61571 2.31247 1.06789L2.32891 1.05251L2.34391 1.03572C2.48297 0.880002 2.65271 0.753078 2.84326 0.662878C3.03067 0.574169 3.23433 0.522808 3.4424 0.511924H3.44355H3.44577H3.44799H3.45021H3.45243H3.45465H3.45687H3.45909H3.46131H3.46353H3.46574H3.46796H3.47018H3.4724H3.47461H3.47683H3.47904H3.48126H3.48347H3.48569H3.4879H3.49012H3.49233H3.49454H3.49676H3.49897H3.50118H3.50339H3.50561H3.50782H3.51003H3.51224H3.51445H3.51666H3.51887H3.52108H3.52328H3.52549H3.5277H3.52991H3.53212H3.53432H3.53653H3.53873H3.54094H3.54315H3.54535H3.54756H3.54976H3.55196H3.55417H3.55637H3.55857H3.56078H3.56298H3.56518H3.56738H3.56958H3.57178H3.57398H3.57618H3.57838H3.58058H3.58278H3.58498H3.58717H3.58937H3.59157H3.59377H3.59596H3.59816H3.60035H3.60255H3.60474H3.60694H3.60913H3.61133H3.61352H3.61571H3.6179H3.6201H3.62229H3.62448H3.62667H3.62886H3.63105H3.63324H3.63543H3.63762H3.63981H3.642H3.64418H3.64637H3.64856H3.65075H3.65293H3.65512H3.6573H3.65949H3.66167H3.66386H3.66604H3.66822H3.67041H3.67259H3.67477H3.67695H3.67913H3.68132H3.6835H3.68568H3.68786H3.69003H3.69221H3.69439H3.69657H3.69875H3.70093H3.7031H3.70528H3.70745H3.70963H3.71181H3.71398H3.71615H3.71833H3.7205H3.72267H3.72485H3.72702H3.72919H3.73136H3.73353H3.7357H3.73787H3.74004H3.74221H3.74438H3.74655H3.74872H3.75089H3.75305H3.75522H3.75739H3.75955H3.76172H3.76388H3.76605H3.76821H3.77037H3.77254H3.7747H3.77686H3.77902H3.78119H3.78335H3.78551H3.78767H3.78983H3.79199H3.79415H3.7963H3.79846H3.80062H3.80278H3.80493H3.80709H3.80924H3.8114H3.81356H3.81571H3.81786H3.82002H3.82217H3.82432H3.82647H3.82863H3.83078H3.83293H3.83508H3.83723H3.83938H3.84153H3.84368H3.84582H3.84797H3.85012H3.85226H3.85441H3.85656H3.8587H3.86085H3.86299H3.86513H3.86728H3.86942H3.87156H3.87371H3.87585H3.87799H3.88013H3.88227H3.88441H3.88655H3.88869H3.89082H3.89296H3.8951H3.89724H3.89937H3.90151H3.90364H3.90578H3.90791H3.91005H3.91218H3.91431H3.91645H3.91858H3.92071H3.92284H3.92497H3.9271H3.92923H3.93136H3.93349H3.93562H3.93775H3.93987H3.942H3.94413H3.94625H3.94838H3.9505H3.95263H3.95475H3.95687H3.959H3.96112H3.96324H3.96536H3.96748H3.9696H3.97172H3.97384H3.97596H3.97808H3.9802H3.98232H3.98443H3.98655H3.98866H3.99078H3.9929H3.99501H3.99712H3.99924H4.00135H4.00346H4.00557H4.00769H4.0098H4.01191H4.01402H4.01613H4.01823H4.02034H4.02245H4.02456H4.02666H4.02877H4.03088H4.03298H4.03509H4.03719H4.03929H4.0414H4.0435H4.0456H4.0477H4.04981H4.05191H4.05401H4.05611H4.0582H4.0603H4.0624H4.0645H4.0666H4.06869H4.07079H4.07288H4.07498H4.07707H4.07917H4.08126H4.08335H4.08544H4.08753H4.08963H4.09172H4.09381H4.0959H4.09799H4.10007H4.10216H4.10425H4.10634H4.10842H4.11051H4.11259H4.11468H4.11676H4.11884H4.12093H4.12301H4.12509H4.12717H4.12925H4.13134H4.13341H4.13549H4.13757H4.13965H4.14173H4.14381H4.14588H4.14796H4.15003H4.15211H4.15418H4.15626H4.15833H4.1604H4.16247H4.16455H4.16662H4.16869H4.17076H4.17283H4.17489H4.17696H4.17903H4.1811H4.18316H4.18523H4.18729H4.18936H4.19142H4.19349H4.19555H4.19761H4.19968H4.20174H4.2038H4.20586H4.20792H4.20998H4.21203H4.21409H4.21615H4.21821H4.22026H4.22232H4.22437H4.22643H4.22848H4.23054H4.23259H4.23464H4.23669H4.23874H4.24079H4.24284H4.24489H4.24694H4.24899H4.25104H4.25308H4.25513H4.25718H4.25922H4.26127H4.26331H4.26535H4.2674H4.26944H4.27148H4.27352H4.27556H4.2776H4.27964H4.28168H4.28372H4.28576H4.28779H4.28983H4.29187H4.2939H4.29594H4.29797H4.3H4.30204H4.30407H4.3061H4.30813H4.31016H4.31219H4.31422H4.31625H4.31828H4.3203H4.32233H4.32436H4.32638H4.32841H4.33043H4.33245H4.33448H4.3365H4.33852H4.34054H4.34256H4.34458H4.3466H4.34862H4.35064H4.35266H4.35468H4.35669H4.35871H4.36072H4.36274H4.36475H4.36676H4.36878H4.37079H4.3728H4.37481H4.37682H4.37883H4.38084H4.38285H4.38486H4.38686H4.38887H4.39087H4.39288H4.39488H4.39689H4.39889H4.40089H4.4029H4.4049H4.4069H4.4089H4.4109H4.4129H4.41489H4.41689H4.41889H4.42089H4.42288H4.42488H4.42687H4.42886H4.43086H4.43285H4.43484H4.43683H4.43882H4.44081H4.4428H4.44479H4.44678H4.44877H4.45075H4.45274H4.45472H4.45671H4.45869H4.46068H4.46266H4.46464H4.46662H4.4686H4.47058H4.47256H4.47454H4.47652H4.4785H4.48047H4.48245H4.48443H4.4864H4.48837H4.49035H4.49232H4.49429H4.49626H4.49824H4.50021H4.50217H4.50414H4.50611H4.50808H4.51005C4.5672 0.511924 4.62465 0.508226 4.66587 0.505574C4.66877 0.505387 4.67158 0.505206 4.67431 0.505031C4.72157 0.502012 4.75535 0.500076 4.78776 0.500002C4.84779 0.499865 4.88234 0.506692 4.91097 0.518592C4.95737 0.537876 5.12317 0.628129 5.33343 1.12706C5.43093 1.35842 5.56007 1.66633 5.70381 2.00909C5.89959 2.47591 6.12247 3.00736 6.32944 3.49805C6.68268 4.33547 7.01714 5.12087 7.1042 5.28399L7.54531 5.04857L7.1042 5.28399C7.14614 5.36258 7.16786 5.44966 7.16786 5.53784C7.16786 5.62602 7.14614 5.7131 7.1042 5.79168L7.09926 5.80093L7.09472 5.81037C6.99736 6.01278 6.88921 6.21 6.77072 6.40121L6.59531 6.62362C6.44523 6.78723 6.29383 6.96583 6.15434 7.13124C6.14209 7.14576 6.12996 7.16016 6.11793 7.17443C5.98557 7.33145 5.8662 7.47307 5.75949 7.59068C5.7486 7.60268 5.73574 7.61644 5.72134 7.63186C5.61528 7.74536 5.42555 7.94841 5.3242 8.1958C5.18384 8.53841 5.21499 8.91619 5.45295 9.30631C6.31827 10.7774 7.40885 12.1075 8.68584 13.2496Z" stroke="white"/>
</svg>
