<svg width="91" height="91" viewBox="0 0 91 91" fill="none" xmlns="http://www.w3.org/2000/svg">
<circle cx="45.5" cy="45.5" r="44.5" stroke="url(#paint0_linear_240_5)" stroke-width="2"/>
<g clip-path="url(#clip0_240_5)">
<path d="M69.9855 44.5V44.5V44.5002V44.5011L69.9855 44.5053L69.9855 44.5228L69.9853 44.5935C69.985 44.656 69.9845 44.7489 69.9834 44.869C69.9813 45.1091 69.9771 45.4576 69.9687 45.8891C69.9518 46.7524 69.918 47.9455 69.8506 49.2648C69.7141 51.9333 69.4439 55.016 68.9286 56.9587L68.9281 56.9608C68.6781 57.9113 68.1863 58.7781 67.5026 59.4752C66.8201 60.171 65.9702 60.6736 65.0379 60.9341C64.1156 61.1811 62.4225 61.383 60.3184 61.5381C58.2388 61.6915 55.8391 61.7942 53.558 61.8628C51.2785 61.9313 49.1255 61.9657 47.5419 61.9828C46.7504 61.9914 46.1015 61.9957 45.6508 61.9978C45.4255 61.9989 45.2498 61.9994 45.1305 61.9997L44.9949 61.9999L44.9605 62L44.9519 62H44.9498H44.9494C44.9493 62 44.9492 62 44.9492 63C44.9492 62 44.9492 62 44.9491 62H44.9486H44.9465L44.9379 62L44.9034 61.9999L44.7673 61.9997C44.6476 61.9994 44.4713 61.9989 44.2452 61.9978C43.7931 61.9957 43.1422 61.9914 42.3483 61.9828C40.7602 61.9657 38.6018 61.9313 36.3186 61.8628C34.0339 61.7941 31.6324 61.6914 29.5556 61.5381C27.4517 61.3828 25.7672 61.1808 24.8621 60.9346C23.9265 60.6749 23.0734 60.1722 22.3879 59.4755C21.7021 58.7786 21.208 57.9116 20.9556 56.9604C20.4472 55.0162 20.1806 51.9333 20.046 49.2655C19.9795 47.946 19.9461 46.7527 19.9295 45.8893C19.9211 45.4578 19.917 45.1092 19.9149 44.8691C19.9139 44.749 19.9134 44.6561 19.9131 44.5935L19.9129 44.5228L19.9128 44.5053L19.9128 44.5011L19.9128 44.5002V44.5V44.4999L19.9128 44.4989L19.9128 44.4947L19.9129 44.4772L19.9131 44.4065C19.9134 44.3439 19.9139 44.251 19.9149 44.1309C19.917 43.8907 19.9211 43.5421 19.9295 43.1105C19.9461 42.2468 19.9795 41.0531 20.046 39.7326C20.1806 37.064 20.447 33.9779 20.9554 32.0258C21.2098 31.0774 21.7046 30.2136 22.3899 29.5193C23.075 28.8252 23.9267 28.3246 24.8603 28.0659C25.7782 27.819 27.4694 27.6171 29.5739 27.4619C31.6528 27.3085 34.053 27.2058 36.335 27.1372C38.6154 27.0686 40.7697 27.0343 42.3545 27.0171C43.1466 27.0086 43.796 27.0043 44.247 27.0021C44.4725 27.0011 44.6484 27.0005 44.7678 27.0003L44.9035 27L44.938 27L44.9465 27L44.9486 27H44.9491C44.9492 27 44.9492 27 44.9492 26C44.9492 27 44.9493 27 44.9494 27H44.9498L44.9519 27L44.9605 27L44.995 27L45.131 27.0003C45.2506 27.0005 45.4268 27.0011 45.6526 27.0021C46.1044 27.0043 46.7548 27.0086 47.5481 27.0171C49.1351 27.0343 51.2921 27.0686 53.5744 27.1372C55.8582 27.2058 58.2593 27.3085 60.3368 27.4619C62.4405 27.6171 64.1271 27.8191 65.0366 28.0655C65.9682 28.3248 66.8177 28.8257 67.5006 29.5197L68.2134 28.8184L67.5006 29.5197C68.184 30.2143 68.6766 31.0782 68.9285 32.0261C69.444 33.9768 69.7141 37.0634 69.8506 39.7333C69.918 41.0536 69.9518 42.2472 69.9687 43.1107C69.9771 43.5423 69.9813 43.8909 69.9834 44.131C69.9845 44.2511 69.985 44.344 69.9853 44.4065L69.9855 44.4772L69.9855 44.4948L69.9855 44.4989V44.4999V44.5ZM38.6722 52.3258V54.0554L40.1711 53.1924L53.7635 45.3666L55.2701 44.4992L53.7628 43.633L40.1704 35.8219L38.6722 34.9609V36.6889V52.3258Z" stroke="url(#paint1_linear_240_5)" stroke-width="2"/>
</g>
<defs>
<linearGradient id="paint0_linear_240_5" x1="45.5" y1="0" x2="45.5" y2="91" gradientUnits="userSpaceOnUse">
<stop stop-color="#E2CCA1"/>
<stop offset="0.39" stop-color="#8D774C"/>
<stop offset="0.68" stop-color="#CDB78C"/>
<stop offset="1" stop-color="#877146"/>
</linearGradient>
<linearGradient id="paint1_linear_240_5" x1="44.9492" y1="26" x2="44.9492" y2="63" gradientUnits="userSpaceOnUse">
<stop stop-color="#E2CCA1"/>
<stop offset="0.39" stop-color="#8D774C"/>
<stop offset="0.68" stop-color="#CDB78C"/>
<stop offset="1" stop-color="#877146"/>
</linearGradient>
<clipPath id="clip0_240_5">
<rect width="52" height="37" fill="white" transform="translate(19 26)"/>
</clipPath>
</defs>
</svg>
