<svg width="91" height="91" viewBox="0 0 91 91" fill="none" xmlns="http://www.w3.org/2000/svg">
<circle cx="45.5" cy="45.5" r="44.5" stroke="url(#paint0_linear_240_6)" stroke-width="2"/>
<path d="M13.1302 33.4168L13.1175 33.3872L13.113 33.3751C13.1067 33.3578 13.0966 33.3292 13.0849 33.2922C13.0609 33.2158 13.0339 33.1153 13.0168 33.0107C13.0067 32.9493 13.0018 32.897 13.0004 32.8546C13.3001 32.6809 13.64 32.5871 13.9877 32.5839H22.602C22.9247 32.6538 23.2322 32.7826 23.5093 32.9644C23.6969 33.1301 23.8464 33.3358 23.9464 33.5674C24.9021 35.9302 26.0085 38.2285 27.2588 40.448L27.2587 40.448L27.2639 40.457C29.0924 43.6257 30.4832 45.6512 31.616 46.8016C32.1822 47.3766 32.7545 47.8071 33.3566 48.0124C34.0114 48.2357 34.6411 48.1708 35.1978 47.8666L35.1987 47.8661C35.6749 47.6052 35.9809 47.1717 36.183 46.7718C36.3908 46.3603 36.5396 45.8827 36.6505 45.3973C36.8727 44.4249 36.9761 43.2675 37.0209 42.1885C37.066 41.1005 37.0529 40.0497 37.0289 39.274C37.0168 38.8852 37.002 38.5634 36.9901 38.3378C36.9841 38.225 36.9789 38.1361 36.9751 38.0749L36.9721 38.0279C37.0117 36.4375 36.6666 34.8608 35.9663 33.4333L35.9073 33.313L35.8187 33.2125C35.2831 32.6048 34.6148 32.1406 33.8742 31.8508C33.966 31.7882 34.0625 31.731 34.1612 31.6826L34.1642 31.6811C34.7645 31.3845 35.6872 31.2007 36.9598 31.1061C38.2136 31.0129 39.6855 31.0123 41.3334 31.0123H41.3532L41.373 31.0115C42.7211 30.9582 44.0702 31.0903 45.3829 31.4043C45.9684 31.5472 46.2233 31.7529 46.3725 31.9685C46.5472 32.2208 46.6822 32.6373 46.7374 33.3944C46.7923 34.1469 46.7618 35.0957 46.7122 36.3369C46.7084 36.4311 46.7046 36.5267 46.7006 36.6237C46.6537 37.7869 46.5983 39.158 46.5983 40.743C46.5983 41.038 46.5891 41.3793 46.5791 41.7456C46.5567 42.5721 46.5308 43.5259 46.6001 44.3619C46.6983 45.5473 47.0089 47.0114 48.2086 47.7982L48.2085 47.7983L48.2158 47.8029C48.629 48.0689 49.1495 48.1643 49.7239 48.0139C50.2548 47.8749 50.793 47.5379 51.3572 47.0284C52.484 46.0108 53.9752 44.0634 56.0084 40.5533L56.0085 40.5533L56.0132 40.5449C57.3402 38.2021 58.492 35.7634 59.4592 33.2489C59.5557 33.0475 59.6947 32.8707 59.8658 32.7305C60.0381 32.6603 60.2256 32.6351 60.4105 32.6578L60.4712 32.6652H60.5323H69.7073H69.7714L69.8332 32.6573L69.8336 32.6572L69.8342 32.6571L69.8346 32.6571L69.835 32.657L69.8352 32.657L69.85 32.6553C69.8646 32.6537 69.8882 32.6511 69.9197 32.6482C69.9828 32.6422 70.0766 32.6346 70.1917 32.6288C70.4253 32.6172 70.7305 32.6142 71.0384 32.6437C71.356 32.6742 71.6199 32.7341 71.8015 32.8163C71.8878 32.8554 71.9347 32.8903 71.9572 32.9113C71.9678 32.9212 71.9724 32.9274 71.9738 32.9296C71.9745 32.9306 71.9749 32.9313 71.9753 32.932C71.9756 32.9326 71.9758 32.9331 71.976 32.9338C71.9933 32.9805 72.0343 33.1836 71.9205 33.6517C71.8114 34.1004 71.585 34.6911 71.2103 35.4367C70.462 36.9255 69.188 38.9039 67.3303 41.3905C66.5788 42.3909 65.8878 43.2846 65.28 44.0707C64.6777 44.8497 64.1571 45.5231 63.7403 46.0899C62.9033 47.2281 62.2668 48.2117 62.0663 49.1665C61.8361 50.2626 62.1968 51.1622 62.8632 52.0286C63.4512 52.7931 64.3724 53.6529 65.5225 54.7264C65.5888 54.7883 65.656 54.851 65.7238 54.9144L65.7241 54.9146C68.1291 57.1595 69.5613 58.8117 70.4039 59.9178C71.1025 60.8348 71.3915 61.3663 71.5301 61.6213C71.5576 61.672 71.5792 61.7117 71.5969 61.7414L71.5978 61.7429C72.0283 62.4616 72.0202 62.8416 71.9843 62.9977C71.9505 63.1445 71.8445 63.3 71.579 63.4601C71.3075 63.6238 70.9597 63.7336 70.645 63.8005C70.4941 63.8325 70.3644 63.8519 70.2747 63.8631C70.2301 63.8686 70.1962 63.8721 70.1754 63.874L70.1726 63.8742L62.1221 63.9822L62.0892 63.9826L62.0565 63.9852C60.8555 64.0805 59.6626 63.7129 58.7198 62.9558L58.6955 62.9363L58.67 62.9183C58.0179 62.4583 57.3379 61.7879 56.6256 61.0033C56.2118 60.5475 55.834 60.1078 55.4523 59.6635C55.1477 59.3091 54.8407 58.9517 54.511 58.5811C53.8218 57.8064 53.0942 57.0466 52.3636 56.5303C51.6522 56.0276 50.7082 55.5952 49.6956 55.9305C48.8116 56.2232 48.2322 56.9072 47.8567 57.5887C47.4788 58.2746 47.246 59.0655 47.0977 59.7745C46.9478 60.4919 46.8741 61.1763 46.8376 61.6769C46.8192 61.9287 46.8099 62.1376 46.8052 62.2852C46.8029 62.3591 46.8017 62.418 46.801 62.4594L46.8005 62.5084L46.8004 62.5226L46.8004 62.5271L46.8004 62.5286V62.5292C46.8004 62.5295 46.8004 62.5297 47.8004 62.5297L46.8004 62.5297V62.5374L46.8005 62.545C46.8055 62.8706 46.7182 63.1896 46.5507 63.4652C46.2678 63.6831 45.9339 63.8238 45.5813 63.8737H42.1175L42.019 63.8489L41.9047 63.8467C39.1827 63.7951 36.5 63.1825 34.0224 62.0465C31.5448 60.9106 29.3249 59.2753 27.5001 57.2417L27.4895 57.2299L27.4786 57.2185C23.7113 53.2781 20.1226 47.3438 17.4564 42.3343C16.1293 39.8407 15.0416 37.5972 14.286 35.9776C13.9083 35.168 13.6138 34.515 13.4142 34.0653C13.3144 33.8404 13.2384 33.6665 13.1875 33.5493C13.162 33.4907 13.1429 33.4463 13.1302 33.4168ZM13.0062 32.7533C13.0062 32.7533 13.0061 32.7541 13.0057 32.7554L13.0062 32.7533Z" stroke="url(#paint1_linear_240_6)" stroke-width="2"/>
<defs>
<linearGradient id="paint0_linear_240_6" x1="45.5" y1="0" x2="45.5" y2="91" gradientUnits="userSpaceOnUse">
<stop stop-color="#E2CCA1"/>
<stop offset="0.39" stop-color="#8D774C"/>
<stop offset="0.68" stop-color="#CDB78C"/>
<stop offset="1" stop-color="#877146"/>
</linearGradient>
<linearGradient id="paint1_linear_240_6" x1="42.5" y1="30" x2="42.5" y2="65" gradientUnits="userSpaceOnUse">
<stop stop-color="#E2CCA1"/>
<stop offset="0.39" stop-color="#8D774C"/>
<stop offset="0.68" stop-color="#CDB78C"/>
<stop offset="1" stop-color="#877146"/>
</linearGradient>
</defs>
</svg>
