<svg width="91" height="91" viewBox="0 0 91 91" fill="none" xmlns="http://www.w3.org/2000/svg">
<path fill-rule="evenodd" clip-rule="evenodd" d="M91 45.5C91 70.629 70.629 91 45.5 91C20.371 91 0 70.629 0 45.5C0 20.371 20.371 0 45.5 0C70.629 0 91 20.371 91 45.5ZM46.1843 19C33.0561 19 22.4136 29.6425 22.4136 42.7706C22.4136 47.726 23.931 52.3297 26.5264 56.1391L20.9661 69.1132L35.0176 63.7602C38.3478 65.5354 42.1499 66.5412 46.1843 66.5412C59.3124 66.5412 69.9549 55.8988 69.9549 42.7706C69.9549 29.6425 59.3124 19 46.1843 19ZM57.4806 48.188C57.5416 48.2176 57.5933 48.2427 57.6345 48.2626C57.7683 48.3341 57.8924 48.3976 58.0075 48.4564C58.4248 48.6698 58.7238 48.8227 58.9352 49.0821C59.091 50.0585 58.9645 51.0588 58.5704 51.9664C58.122 52.7115 57.5198 53.3538 56.8035 53.8509C56.0872 54.348 55.2731 54.6888 54.4147 54.8506C54.1965 54.8506 54.02 54.8832 53.8317 54.9179C53.0484 55.0623 52.0618 55.2442 47.0232 53.2745C41.2779 51.0287 37.4765 45.5058 36.6541 44.3111C36.582 44.2062 36.5327 44.1347 36.5071 44.1017C35.5435 42.8377 34.8033 41.42 34.3183 39.9093C34.1189 39.2385 34.0123 38.5439 34.0011 37.8446C33.984 36.8973 34.1655 35.9569 34.5341 35.0831C34.9028 34.2094 35.4505 33.4215 36.1424 32.7696C36.3421 32.5442 36.5855 32.361 36.858 32.231C37.1305 32.1011 37.4266 32.027 37.7285 32.0131H38.9022C38.9463 32.0131 38.9926 32.0101 39.041 32.007C39.3932 31.9843 39.8518 31.9547 40.298 33.0217C40.4058 33.2793 40.5463 33.6171 40.7025 33.9923C41.2822 35.385 42.0765 37.2935 42.2014 37.5294C42.2889 37.6946 42.3346 37.8785 42.3346 38.0653C42.3346 38.252 42.2889 38.4359 42.2014 38.6011C42.0827 38.8498 41.9503 39.0918 41.8049 39.3261L41.5828 39.6098C41.4103 39.7984 41.2332 40.0102 41.064 40.2123C40.9221 40.382 40.7859 40.5449 40.6628 40.6816C40.6456 40.7007 40.6281 40.7199 40.6103 40.7393C40.3497 41.0243 40.0516 41.3502 40.3932 41.9109C41.3055 43.4748 42.4559 44.889 43.8034 46.1033C45.2615 47.3889 46.9368 48.4081 48.7522 49.1137C49.3866 49.4289 49.7355 49.3816 50.1004 48.9718C50.4652 48.5621 51.639 47.1908 52.0514 46.5919C52.4638 45.993 52.8603 46.0876 53.4313 46.2925C53.9643 46.4837 56.6256 47.7736 57.4806 48.188Z" fill="url(#paint0_linear_231_733)"/>
<defs>
<linearGradient id="paint0_linear_231_733" x1="45.5" y1="0" x2="45.5" y2="91" gradientUnits="userSpaceOnUse">
<stop stop-color="#E2CCA1"/>
<stop offset="0.39" stop-color="#8D774C"/>
<stop offset="0.68" stop-color="#CDB78C"/>
<stop offset="1" stop-color="#877146"/>
</linearGradient>
</defs>
</svg>
