<svg width="91" height="91" viewBox="0 0 91 91" fill="none" xmlns="http://www.w3.org/2000/svg">
<path fill-rule="evenodd" clip-rule="evenodd" d="M45.5 91C70.629 91 91 70.629 91 45.5C91 20.371 70.629 0 45.5 0C20.371 0 0 20.371 0 45.5C0 70.629 20.371 91 45.5 91ZM45.6448 64.8737H41.9936L41.8858 64.8465C39.0262 64.7923 36.208 64.1487 33.6056 62.9555C31.0032 61.7623 28.6719 60.0449 26.7558 57.9095C19.0224 49.8208 12.1916 33.7653 12.1916 33.7653C12.1916 33.7653 11.7605 32.7085 12.1916 32.1937C12.7085 31.8026 13.3367 31.5888 13.9835 31.5839H22.7004C23.2071 31.6771 23.6889 31.8755 24.1151 32.1665C24.4429 32.4405 24.7015 32.7887 24.8695 33.1827C25.81 35.5092 26.8992 37.772 28.13 39.9572C31.7812 46.2845 33.4787 47.6665 34.7182 46.9891C36.5236 46 35.9712 38.0468 35.9712 38.0468C36.0143 36.6025 35.7043 35.1696 35.0685 33.8737C34.3775 33.0897 33.4122 32.6044 32.3739 32.5188C31.8754 32.4511 32.6703 31.2995 33.7212 30.7846C35.2841 30.0123 38.0595 30.0123 41.3334 30.0123C42.7739 29.9553 44.2154 30.0966 45.6178 30.4323C47.9286 30.995 47.8564 32.784 47.6999 36.6624C47.6529 37.8266 47.5983 39.179 47.5983 40.743C47.5983 41.0935 47.588 41.4676 47.5774 41.8528C47.5226 43.8354 47.4597 46.1112 48.757 46.962C49.4306 47.3956 51.1013 47.0297 55.1431 40.052C56.4514 37.7422 57.5863 35.3374 58.5383 32.8575C58.7186 32.4634 58.997 32.1227 59.3466 31.8685C59.7137 31.6861 60.1258 31.6154 60.5323 31.6652H69.7073C69.7073 31.6652 72.4423 31.3129 72.9138 32.5865C73.3854 33.8601 71.8764 36.9764 68.131 41.9895C64.5739 46.7251 62.847 48.4671 63.0073 50.0134C63.1245 51.1438 64.2501 52.1696 66.4064 54.1835C70.9259 58.4021 72.125 60.6196 72.4052 61.1378C72.4274 61.1788 72.4438 61.2091 72.4557 61.229C74.4766 64.6027 70.2192 64.8737 70.2192 64.8737L62.1355 64.9821C60.6798 65.0975 59.2348 64.6518 58.0937 63.7355C56.9292 62.9142 55.7771 61.5748 54.6736 60.292C52.9556 58.2946 51.3554 56.4343 50.0099 56.8798C47.8004 57.6114 47.8004 62.5297 47.8004 62.5297C47.8092 63.1068 47.6346 63.6717 47.3019 64.1421C46.8351 64.5478 46.2577 64.8027 45.6448 64.8737Z" fill="url(#paint0_linear_231_874)"/>
<defs>
<linearGradient id="paint0_linear_231_874" x1="45.5" y1="0" x2="45.5" y2="91" gradientUnits="userSpaceOnUse">
<stop stop-color="#E2CCA1"/>
<stop offset="0.39" stop-color="#8D774C"/>
<stop offset="0.68" stop-color="#CDB78C"/>
<stop offset="1" stop-color="#877146"/>
</linearGradient>
</defs>
</svg>
