<svg width="91" height="91" viewBox="0 0 91 91" fill="none" xmlns="http://www.w3.org/2000/svg">
<circle cx="45.5" cy="45.5" r="44.5" stroke="url(#paint0_linear_239_3)" stroke-width="2"/>
<path d="M18.3703 47.4038L18.3139 47.3843C18.2769 47.355 18.2316 47.3161 18.186 47.2698C18.058 47.1396 18.0099 47.0358 18.0016 46.981C17.999 46.9643 17.9974 46.9393 18.0137 46.8935C18.0318 46.8428 18.0816 46.7409 18.2201 46.5941C18.5098 46.2873 19.1174 45.8583 20.3112 45.3716L20.9337 45.1178V45.0961L21.2413 44.9688L23.7433 43.9333C25.8456 43.063 28.7254 41.8704 31.8354 40.5814C38.0545 38.0038 45.1961 35.0397 48.8793 33.4967L48.8876 33.4932L48.8959 33.4895C50.2887 32.8762 53.3894 31.5807 56.1537 30.4338C57.5333 29.8614 58.8252 29.3276 59.7723 28.9369C60.2458 28.7415 60.6331 28.582 60.902 28.4713L61.2124 28.3435L61.2935 28.3101L61.3142 28.3016L61.3148 28.3013L61.3154 28.3011L61.3162 28.3008L61.3168 28.3005L61.3181 28.3L61.3417 28.291C61.3649 28.2823 61.402 28.2687 61.4511 28.2521C61.5498 28.2186 61.6935 28.1736 61.8656 28.1308C62.2221 28.0421 62.6432 27.9772 63.0188 28.0075C63.3909 28.0375 63.6085 28.1488 63.7369 28.3025C63.8672 28.4584 64.0616 28.8446 63.9814 29.7614L63.9806 29.7704L63.98 29.7793C63.895 31.0037 63.3925 34.2891 62.7588 38.4333C62.4916 40.1803 62.2011 42.08 61.9087 44.0422C61.1708 48.6772 60.4063 53.5265 59.8263 57.2174C59.5362 59.0635 59.2922 60.6199 59.1207 61.7147L58.9212 62.9894L58.8684 63.327L58.8549 63.4137L58.8514 63.4357L58.8506 63.4412L58.8504 63.4426L58.8503 63.443C58.8503 63.443 58.8503 63.4431 59.8383 63.5974L58.8503 63.4431L58.845 63.4766L58.8424 63.5069L58.8424 63.5073L58.8423 63.5082L58.8422 63.5092L58.8422 63.5098L58.8421 63.5104L58.8411 63.5192C58.8397 63.532 58.8371 63.5542 58.8329 63.5844C58.8245 63.6451 58.8101 63.7373 58.7869 63.8514C58.7399 64.0826 58.6602 64.3883 58.5307 64.6989C58.26 65.3483 57.8626 65.8238 57.2821 65.9589C56.976 66.0301 56.545 66.0123 55.9968 65.8786C55.4598 65.7477 54.8822 65.5236 54.3201 65.2591C53.1957 64.7301 52.2335 64.088 51.9424 63.8867C51.8199 63.802 51.4622 63.5679 50.938 63.2249C48.4513 61.5978 42.2181 57.519 39.5678 55.2992L39.5312 55.2685L39.4918 55.2415C39.307 55.1145 39.156 54.9419 39.0535 54.7389C38.9512 54.536 38.901 54.3098 38.9082 54.0812C38.9154 53.8525 38.9796 53.6301 39.0944 53.4344C39.2092 53.2385 39.3706 53.0761 39.5628 52.9613L39.6521 52.908L39.7285 52.8375C44.1449 48.761 49.438 43.6933 52.636 40.4505C53.0674 40.0152 53.4913 39.445 53.7858 38.8918C53.933 38.6152 54.0653 38.3103 54.1418 38.0043C54.2114 37.7253 54.2721 37.2997 54.1005 36.8779C53.8884 36.3566 53.4289 36.0821 52.948 36.0209C52.5359 35.9685 52.1024 36.0645 51.6971 36.2051C50.8675 36.4931 49.7231 37.1263 48.1762 38.1874L48.1762 38.1874L48.1708 38.1911C43.8194 41.2179 39.5025 44.1514 36.2729 46.3286C34.6582 47.4171 33.3157 48.3163 32.377 48.9432C31.9077 49.2567 31.5393 49.5021 31.2884 49.6691L31.0021 49.8595L30.9704 49.8805C30.2321 50.2108 29.4363 50.3902 28.629 50.4081C27.7971 50.4267 26.97 50.2735 26.1985 49.9578L26.1545 49.9397L26.1089 49.926C24.2817 49.3741 22.3003 48.7274 20.7726 48.2177C20.0095 47.963 19.361 47.743 18.9036 47.5867C18.6749 47.5086 18.4939 47.4464 18.3703 47.4038Z" stroke="url(#paint1_linear_239_3)" stroke-width="2"/>
<defs>
<linearGradient id="paint0_linear_239_3" x1="45.5" y1="0" x2="45.5" y2="91" gradientUnits="userSpaceOnUse">
<stop stop-color="#E2CCA1"/>
<stop offset="0.39" stop-color="#8D774C"/>
<stop offset="0.68" stop-color="#CDB78C"/>
<stop offset="1" stop-color="#877146"/>
</linearGradient>
<linearGradient id="paint1_linear_239_3" x1="41" y1="27" x2="41" y2="67" gradientUnits="userSpaceOnUse">
<stop stop-color="#E2CCA1"/>
<stop offset="0.39" stop-color="#8D774C"/>
<stop offset="0.68" stop-color="#CDB78C"/>
<stop offset="1" stop-color="#877146"/>
</linearGradient>
</defs>
</svg>
