<svg width="91" height="91" viewBox="0 0 91 91" fill="none" xmlns="http://www.w3.org/2000/svg">
<circle cx="45.5" cy="45.5" r="44.5" stroke="url(#paint0_linear_240_4)" stroke-width="2"/>
<path fill-rule="evenodd" clip-rule="evenodd" d="M57.6345 48.2626C57.0159 47.9631 54.0023 46.4974 53.4313 46.2925C52.8603 46.0876 52.4638 45.993 52.0514 46.5919C51.639 47.1908 50.4652 48.5621 50.1004 48.9718C49.7355 49.3816 49.3866 49.4289 48.7522 49.1137C46.9368 48.4081 45.2615 47.3889 43.8034 46.1033C42.4559 44.889 41.3056 43.4748 40.3932 41.9109C40.0284 41.312 40.3932 40.981 40.6628 40.6816C40.9325 40.3821 41.2656 39.9566 41.5828 39.6098L41.8049 39.3261C41.9503 39.0918 42.0827 38.8498 42.2014 38.6011C42.2889 38.4359 42.3346 38.252 42.3346 38.0653C42.3346 37.8785 42.2889 37.6946 42.2014 37.5294C42.0428 37.2299 40.8056 34.2353 40.298 33.0217C39.7905 31.8081 39.267 32.0131 38.9022 32.0131C38.5374 32.0131 38.1409 32.0131 37.7285 32.0131C37.4266 32.0269 37.1305 32.1011 36.858 32.231C36.5855 32.361 36.3421 32.5442 36.1424 32.7696C35.4505 33.4215 34.9028 34.2094 34.5341 35.0831C34.1655 35.9569 33.984 36.8973 34.0011 37.8446C34.0123 38.544 34.1189 39.2385 34.3183 39.9093C34.8033 41.42 35.5435 42.8377 36.5071 44.1017C36.8244 44.5115 40.7739 50.8316 47.0232 53.2745C53.2726 55.7175 53.2885 54.8506 54.4147 54.8506C55.2731 54.6888 56.0872 54.348 56.8035 53.8509C57.5198 53.3538 58.122 52.7115 58.5704 51.9664C58.9645 51.0588 59.091 50.0585 58.9352 49.0821C58.6655 48.7512 58.2531 48.5936 57.6345 48.2626Z" fill="url(#paint1_linear_240_4)"/>
<path d="M27.6646 56.313L28.5837 56.707L28.8058 56.1887L28.4773 55.7304L27.6646 56.313ZM22.8145 67.6299L21.8953 67.236L20.9661 69.4042L23.1704 68.5644L22.8145 67.6299ZM35.0922 62.9527L35.5801 62.0797L35.1725 61.852L34.7362 62.0182L35.0922 62.9527ZM67.9549 43.0616C67.9549 55.0852 58.2079 64.8323 46.1843 64.8323V66.8323C59.3124 66.8323 69.9549 56.1898 69.9549 43.0616H67.9549ZM46.1843 21.291C58.2079 21.291 67.9549 31.0381 67.9549 43.0616H69.9549C69.9549 29.9335 59.3124 19.291 46.1843 19.291V21.291ZM24.4137 43.0616C24.4137 31.0381 34.1607 21.291 46.1843 21.291V19.291C33.0561 19.291 22.4137 29.9335 22.4137 43.0616H24.4137ZM28.4773 55.7304C25.9193 52.1618 24.4137 47.789 24.4137 43.0616H22.4137C22.4137 48.2207 24.0583 52.9985 26.8518 56.8956L28.4773 55.7304ZM23.7336 68.0239L28.5837 56.707L26.7454 55.9191L21.8953 67.236L23.7336 68.0239ZM34.7362 62.0182L22.4585 66.6954L23.1704 68.5644L35.4482 63.8872L34.7362 62.0182ZM46.1843 64.8323C42.3324 64.8323 38.717 63.8328 35.5801 62.0797L34.6044 63.8256C38.0318 65.741 41.9821 66.8323 46.1843 66.8323V64.8323Z" fill="url(#paint2_linear_240_4)"/>
<defs>
<linearGradient id="paint0_linear_240_4" x1="45.5" y1="0" x2="45.5" y2="91" gradientUnits="userSpaceOnUse">
<stop stop-color="#E2CCA1"/>
<stop offset="0.39" stop-color="#8D774C"/>
<stop offset="0.68" stop-color="#CDB78C"/>
<stop offset="1" stop-color="#877146"/>
</linearGradient>
<linearGradient id="paint1_linear_240_4" x1="46.5" y1="32" x2="46.5" y2="55" gradientUnits="userSpaceOnUse">
<stop stop-color="#E2CCA1"/>
<stop offset="0.39" stop-color="#8D774C"/>
<stop offset="0.68" stop-color="#CDB78C"/>
<stop offset="1" stop-color="#877146"/>
</linearGradient>
<linearGradient id="paint2_linear_240_4" x1="45.8847" y1="20.291" x2="45.8847" y2="67.6299" gradientUnits="userSpaceOnUse">
<stop stop-color="#E2CCA1"/>
<stop offset="0.39" stop-color="#8D774C"/>
<stop offset="0.68" stop-color="#CDB78C"/>
<stop offset="1" stop-color="#877146"/>
</linearGradient>
</defs>
</svg>
